<svg xmlns="http://www.w3.org/2000/svg" xmlns:xlink="http://www.w3.org/1999/xlink" xmlns:lucid="lucid" width="2400.66" height="2461"><g transform="translate(1059.6622254766771 441)" lucid:page-tab-id="0_0"><path d="M-884.44-380c17.67 0 32 17.9 32 40s-14.33 40-32 40h-96c-17.67 0-32-17.9-32-40s14.33-40 32-40z" stroke="#000" stroke-opacity="0" fill="#ff741d"/><use xlink:href="#a" transform="matrix(1,0,0,1,-1007.4414836511182,-375) translate(54.05 38.4625)"/><path d="M-932.44-299.5v62.12" stroke="#333" fill="none"/><path d="M-931.97-299.5h-.95v-.5h.95z" stroke="#333" stroke-width=".05" fill="#333"/><path d="M-932.44-222.62l-4.64-14.26h9.27z" stroke="#333" fill="#333"/><path d="M-989.55 225.8A7.8 7.8 0 0 1-982 220h116a4.6 4.6 0 0 1 4.45 5.8l-28.9 108.4A7.8 7.8 0 0 1-898 340h-116a4.6 4.6 0 0 1-4.45-5.8z" stroke="#3a414a" stroke-width="2" fill="#fcce14"/><use xlink:href="#b" transform="matrix(1,0,0,1,-1015,225) translate(25.542037037037044 45.27777777777778)"/><use xlink:href="#c" transform="matrix(1,0,0,1,-1015,225) translate(83.44327160493827 45.27777777777778)"/><use xlink:href="#d" transform="matrix(1,0,0,1,-1015,225) translate(55.48648148148148 71.94444444444446)"/><path d="M-944.8 383.6a8 8 0 0 1 9.6 0l70.4 52.8a4.5 4.5 0 0 1 0 7.2l-70.4 52.8a8 8 0 0 1-9.6 0l-70.4-52.8a4.5 4.5 0 0 1 0-7.2z" stroke="#3a414a" stroke-width="2" fill="#e08fff"/><use xlink:href="#e" transform="matrix(1,0,0,1,-1015,385) translate(36.17783950617284 45.27777777777778)"/><use xlink:href="#f" transform="matrix(1,0,0,1,-1015,385) translate(81.79512345679012 45.27777777777778)"/><use xlink:href="#g" transform="matrix(1,0,0,1,-1015,385) translate(46.609938271604946 71.94444444444446)"/><use xlink:href="#h" transform="matrix(1,0,0,1,-1015,385) translate(78.7087037037037 71.94444444444446)"/><path d="M-997.13 565.8a7.8 7.8 0 0 1 7.54-5.8h130.68a4.6 4.6 0 0 1 4.45 5.8l-34.24 128.4a7.8 7.8 0 0 1-7.55 5.8h-130.67a4.6 4.6 0 0 1-4.45-5.8z" stroke="#3a414a" stroke-width="2" fill="#fcce14"/><use xlink:href="#b" transform="matrix(1,0,0,1,-1027.9201766317176,565) translate(25.46179012345679 42.15277777777778)"/><use xlink:href="#i" transform="matrix(1,0,0,1,-1027.9201766317176,565) translate(83.36302469135802 42.15277777777778)"/><use xlink:href="#j" transform="matrix(1,0,0,1,-1027.9201766317176,565) translate(28.338333333333335 68.81944444444446)"/><use xlink:href="#k" transform="matrix(1,0,0,1,-1027.9201766317176,565) translate(112.10376543209877 68.81944444444446)"/><use xlink:href="#l" transform="matrix(1,0,0,1,-1027.9201766317176,565) translate(49.6408024691358 95.48611111111111)"/><path d="M-789.55 305.8A7.8 7.8 0 0 1-782 300h116a4.6 4.6 0 0 1 4.45 5.8l-28.9 108.4A7.8 7.8 0 0 1-698 420h-116a4.6 4.6 0 0 1-4.45-5.8z" stroke="#3a414a" stroke-width="2" fill="#fcce14"/><use xlink:href="#m" transform="matrix(1,0,0,1,-815,305) translate(21.159320987654322 45.27777777777778)"/><use xlink:href="#n" transform="matrix(1,0,0,1,-815,305) translate(111.15932098765433 45.27777777777778)"/><use xlink:href="#o" transform="matrix(1,0,0,1,-815,305) translate(48.1408024691358 71.94444444444446)"/><path d="M-943.35 763.75a7.5 7.5 0 0 1 9.37 0l90.63 72.5a4.8 4.8 0 0 1 0 7.5l-90.63 72.5a7.5 7.5 0 0 1-9.37 0l-90.63-72.5a4.8 4.8 0 0 1 0-7.5z" stroke="#3a414a" stroke-width="2" fill="#e08fff"/><use xlink:href="#e" transform="matrix(1,0,0,1,-1033.6622254766771,765) translate(65.71487654320988 36.52777777777778)"/><use xlink:href="#p" transform="matrix(1,0,0,1,-1033.6622254766771,765) translate(111.33216049382716 36.52777777777778)"/><use xlink:href="#i" transform="matrix(1,0,0,1,-1033.6622254766771,765) translate(57.41240740740741 63.19444444444445)"/><use xlink:href="#q" transform="matrix(1,0,0,1,-1033.6622254766771,765) translate(40.80746913580248 89.86111111111111)"/><use xlink:href="#k" transform="matrix(1,0,0,1,-1033.6622254766771,765) translate(119.63462962962963 89.86111111111111)"/><use xlink:href="#r" transform="matrix(1,0,0,1,-1033.6622254766771,765) translate(60.467962962962964 116.5277777777778)"/><path d="M-789.55 685.8A7.8 7.8 0 0 1-782 680h116a4.6 4.6 0 0 1 4.45 5.8l-28.9 108.4A7.8 7.8 0 0 1-698 800h-116a4.6 4.6 0 0 1-4.45-5.8z" stroke="#3a414a" stroke-width="2" fill="#fcce14"/><use xlink:href="#m" transform="matrix(1,0,0,1,-815,685) translate(21.159320987654322 45.27777777777778)"/><use xlink:href="#n" transform="matrix(1,0,0,1,-815,685) translate(111.15932098765433 45.27777777777778)"/><use xlink:href="#o" transform="matrix(1,0,0,1,-815,685) translate(48.1408024691358 71.94444444444446)"/><path d="M-1038.66-214a6 6 0 0 1 6-6h200.44a6 6 0 0 1 6 6v198.67a6 6 0 0 1-6 6h-200.44a6 6 0 0 1-6-6z" stroke="#3a414a" stroke-width="2" fill="#c3f7c8"/><use xlink:href="#s" transform="matrix(1,0,0,1,-1026.6622254766771,-208) translate(15.086419753086417 46.99652777777778)"/><use xlink:href="#t" transform="matrix(1,0,0,1,-1026.6622254766771,-208) translate(85.20987654320987 46.99652777777778)"/><use xlink:href="#u" transform="matrix(1,0,0,1,-1026.6622254766771,-208) translate(4.499999999999986 73.66319444444446)"/><use xlink:href="#v" transform="matrix(1,0,0,1,-1026.6622254766771,-208) translate(48.88271604938271 73.66319444444446)"/><use xlink:href="#w" transform="matrix(1,0,0,1,-1026.6622254766771,-208) translate(93.26543209876543 73.66319444444446)"/><use xlink:href="#x" transform="matrix(1,0,0,1,-1026.6622254766771,-208) translate(110.48765432098766 73.66319444444446)"/><use xlink:href="#y" transform="matrix(1,0,0,1,-1026.6622254766771,-208) translate(135.17901234567904 73.66319444444446)"/><use xlink:href="#z" transform="matrix(1,0,0,1,-1026.6622254766771,-208) translate(36.4753086419753 100.32986111111111)"/><use xlink:href="#A" transform="matrix(1,0,0,1,-1026.6622254766771,-208) translate(67.33950617283949 100.32986111111111)"/><use xlink:href="#B" transform="matrix(1,0,0,1,-1026.6622254766771,-208) translate(104.37654320987654 100.32986111111111)"/><use xlink:href="#C" transform="matrix(1,0,0,1,-1026.6622254766771,-208) translate(40.2716049382716 126.9965277777778)"/><use xlink:href="#D" transform="matrix(1,0,0,1,-1026.6622254766771,-208) translate(4.53086419753086 153.66319444444446)"/><use xlink:href="#E" transform="matrix(1,0,0,1,-1026.6622254766771,-208) translate(124.09876543209877 153.66319444444446)"/><path d="M-982.47 45.8a7.8 7.8 0 0 1 7.55-5.8h116a4.6 4.6 0 0 1 4.45 5.8l-28.9 108.4a7.8 7.8 0 0 1-7.55 5.8h-116a4.6 4.6 0 0 1-4.45-5.8z" stroke="#3a414a" stroke-width="2" fill="#fcce14"/><use xlink:href="#F" transform="matrix(1,0,0,1,-1007.9201766317176,45) translate(40.94327160493826 45.27777777777778)"/><use xlink:href="#G" transform="matrix(1,0,0,1,-1007.9201766317176,45) translate(11.011172839506168 71.94444444444446)"/><path d="M-932.44-7.33V20.5" stroke="#5e5e5e" stroke-width="2" fill="none"/><path d="M-931.47-7.3h-1.95v-1.03h1.95z" stroke="#5e5e5e" stroke-width=".05" fill="#5e5e5e"/><path d="M-932.44 35.76l-4.64-14.26h9.27z" stroke="#5e5e5e" stroke-width="2" fill="#5e5e5e"/><path d="M-932.92 162v38.5" stroke="#5e5e5e" stroke-width="2" fill="none"/><path d="M-931.95 162.03h-1.94V161h1.95z" stroke="#5e5e5e" stroke-width=".05" fill="#5e5e5e"/><path d="M-932.92 215.76l-4.63-14.26h9.26z" stroke="#5e5e5e" stroke-width="2" fill="#5e5e5e"/><path d="M-940 342v20.5" stroke="#5e5e5e" stroke-width="2" fill="none"/><path d="M-939.02 342.03H-941V341h1.96z" stroke="#5e5e5e" stroke-width=".05" fill="#5e5e5e"/><path d="M-940 377.76l-4.63-14.26h9.26z" stroke="#5e5e5e" stroke-width="2" fill="#5e5e5e"/><path d="M-939.02 540.5H-941v-.83h1.96zm0-22.17H-941V500h1.96z" stroke="#008a0e" stroke-width=".05" fill="#008a0e"/><path d="M-940 499l.98-.06v1.1H-941v-1.1z" fill="#008a0e"/><path stroke="#008a0e" stroke-width=".05" fill="#008a0e"/><path d="M-940 555.76l-4.63-14.26h9.26z" fill="#008a0e"/><path d="M-940 558.92l-5.98-18.4h11.96zm-3.3-16.45l3.3 10.14 3.3-10.13z" stroke="#008a0e" stroke-width=".05" fill="#008a0e"/><use xlink:href="#H" transform="matrix(1,0,0,1,-948.395061728395,518.3343831373674) translate(0.005000000000000782 14.222222222222223)"/><path d="M-803.3 440.98H-861v-1.96h57.7zm62.87-1.55l1.4.22-.06.3-.2.43-.33.32-.4.2-.4.08h-39.27v-1.96h39.2z" stroke="#e81313" stroke-width=".05" fill="#e81313"/><path d="M-860.97 440.98h-1.12l.1-.98-.1-.98h1.13z" fill="#e81313"/><path stroke="#e81313" stroke-width=".05" fill="#e81313"/><path d="M-735.37 438.5h-9.26l4.63-14.26z" fill="#e81313"/><path d="M-734.02 439.48h-11.96l5.98-18.4zm-9.27-1.95h6.6l-3.3-10.14z" stroke="#e81313" stroke-width=".05" fill="#e81313"/><use xlink:href="#I" transform="matrix(1,0,0,1,-803.3003090652229,429.3333333333333) translate(0.005000000000000782 14.222222222222223)"/><path d="M-740 298v-13a6 6 0 0 0-6-6h-110.2" stroke="#5e5e5e" stroke-width="2" fill="none"/><path d="M-739.02 299H-741v-1.03h1.96z" stroke="#5e5e5e" stroke-width=".05" fill="#5e5e5e"/><path d="M-871.46 279l14.26-4.63v9.26z" stroke="#5e5e5e" stroke-width="2" fill="#5e5e5e"/><path d="M-942.92 702v41.75" stroke="#5e5e5e" stroke-width="2" fill="none"/><path d="M-941.95 702.03h-1.94V701h1.95z" stroke="#5e5e5e" stroke-width=".05" fill="#5e5e5e"/><path d="M-942.92 759.02l-4.63-14.27h9.26z" stroke="#5e5e5e" stroke-width="2" fill="#5e5e5e"/><path d="M-1020 966a6 6 0 0 1 6-6h148a6 6 0 0 1 6 6v88a6 6 0 0 1-6 6h-148a6 6 0 0 1-6-6z" stroke="#3a414a" stroke-width="2" fill="#c3f7c8"/><use xlink:href="#J" transform="matrix(1,0,0,1,-1008,972) translate(31.703703703703702 29.65277777777778)"/><use xlink:href="#K" transform="matrix(1,0,0,1,-1008,972) translate(29.172839506172835 56.31944444444445)"/><path d="M-937.7 928.28h-1.94v-8.38h1.95z" stroke="#008a0e" stroke-width=".05" fill="#008a0e"/><path d="M-938.66 918.9l.97-.07v1.1h-1.94v-1.1z" fill="#008a0e"/><path stroke="#008a0e" stroke-width=".05" fill="#008a0e"/><path d="M-940 955.76l-2-6.14h4z" fill="#008a0e"/><path d="M-940 958.92l-3.02-9.3h2.05l.97 3 .97-3h2.05z" stroke="#008a0e" stroke-width=".05" fill="#008a0e"/><use xlink:href="#H" transform="matrix(1,0,0,1,-947.7261744667336,928.2821444644179) translate(0.005000000000000782 14.222222222222223)"/><path d="M-779.13 840.98h-60.4V839h60.4zm46.98-6.94l-.08 1.05-.26 1.06-.4 1-.58.94-.7.83-.84.72-.94.57-1 .42-1.07.25-1.06.08h-16.43V839h16.37l.82-.06.77-.18.73-.3.67-.42.6-.5.5-.6.42-.68.3-.73.2-.76.05-.84V819.5h1.95z" stroke="#e81313" stroke-width=".05" fill="#e81313"/><path d="M-839.52 840.98h-1.1l.08-.98-.1-.98h1.12z" fill="#e81313"/><path stroke="#e81313" stroke-width=".05" fill="#e81313"/><path d="M-728.5 818.5h-9.26l4.64-14.26z" fill="#e81313"/><path d="M-727.15 819.48h-11.95l5.98-18.4zm-9.27-1.95h6.6l-3.3-10.14z" stroke="#e81313" stroke-width=".05" fill="#e81313"/><use xlink:href="#I" transform="matrix(1,0,0,1,-779.1353244580183,829.3333333333334) translate(0.005000000000000782 14.222222222222223)"/><path d="M-740 678v-42a6 6 0 0 0-6-6h-106.05" stroke="#5e5e5e" stroke-width="2" fill="none"/><path d="M-739.02 679H-741v-1.03h1.96z" stroke="#5e5e5e" stroke-width=".05" fill="#5e5e5e"/><path d="M-867.32 630l14.27-4.63v9.26z" stroke="#5e5e5e" stroke-width="2" fill="#5e5e5e"/><path d="M745.34-275.2a7.8 7.8 0 0 1 7.55-5.8h174.88a4.6 4.6 0 0 1 4.45 5.8L892.2-125.13a7.8 7.8 0 0 1-7.53 5.8h-174.9a4.6 4.6 0 0 1-4.44-5.8z" stroke="#3a414a" stroke-width="2" fill="#fcce14"/><use xlink:href="#b" transform="matrix(1,0,0,1,708.7792581744409,-275.99995000000007) translate(46.35067901234567 27.27777777777778)"/><use xlink:href="#L" transform="matrix(1,0,0,1,708.7792581744409,-275.99995000000007) translate(104.2519135802469 27.27777777777778)"/><use xlink:href="#M" transform="matrix(1,0,0,1,708.7792581744409,-275.99995000000007) translate(158.44944444444445 27.27777777777778)"/><use xlink:href="#N" transform="matrix(1,0,0,1,708.7792581744409,-275.99995000000007) translate(189.31364197530866 27.27777777777778)"/><use xlink:href="#O" transform="matrix(1,0,0,1,708.7792581744409,-275.99995000000007) translate(55.955617283950616 53.94444444444445)"/><use xlink:href="#n" transform="matrix(1,0,0,1,708.7792581744409,-275.99995000000007) translate(153.36302469135802 53.94444444444445)"/><use xlink:href="#P" transform="matrix(1,0,0,1,708.7792581744409,-275.99995000000007) translate(21.88771604938273 80.61111111111111)"/><use xlink:href="#Q" transform="matrix(1,0,0,1,708.7792581744409,-275.99995000000007) translate(114.35685185185186 80.61111111111111)"/><use xlink:href="#R" transform="matrix(1,0,0,1,708.7792581744409,-275.99995000000007) translate(132.87537037037038 80.61111111111111)"/><use xlink:href="#S" transform="matrix(1,0,0,1,708.7792581744409,-275.99995000000007) translate(24.20253086419752 107.2777777777778)"/><use xlink:href="#T" transform="matrix(1,0,0,1,708.7792581744409,-275.99995000000007) translate(46.363024691358014 107.2777777777778)"/><use xlink:href="#U" transform="matrix(1,0,0,1,708.7792581744409,-275.99995000000007) translate(163.58524691358025 107.2777777777778)"/><use xlink:href="#V" transform="matrix(1,0,0,1,708.7792581744409,-275.99995000000007) translate(63.96796296296296 133.94444444444446)"/><path d="M724.64-73.33a6 6 0 0 1 6-6h170.92a6 6 0 0 1 6 6v108a6 6 0 0 1-6 6H730.64a6 6 0 0 1-6-6z" stroke="#3a414a" stroke-width="2" fill="#c3f7c8"/><use xlink:href="#W" transform="matrix(1,0,0,1,736.6383397171643,-67.33328333333344) translate(30.48765432098766 26.77777777777778)"/><use xlink:href="#X" transform="matrix(1,0,0,1,736.6383397171643,-67.33328333333344) translate(97.03086419753086 26.77777777777778)"/><use xlink:href="#Y" transform="matrix(1,0,0,1,736.6383397171643,-67.33328333333344) translate(116.16666666666666 26.77777777777778)"/><use xlink:href="#Z" transform="matrix(1,0,0,1,736.6383397171643,-67.33328333333344) translate(9.53086419753086 53.44444444444445)"/><use xlink:href="#X" transform="matrix(1,0,0,1,736.6383397171643,-67.33328333333344) translate(117.98765432098766 53.44444444444445)"/><use xlink:href="#aa" transform="matrix(1,0,0,1,736.6383397171643,-67.33328333333344) translate(137.12345679012344 53.44444444444445)"/><use xlink:href="#ab" transform="matrix(1,0,0,1,736.6383397171643,-67.33328333333344) translate(7.061728395061721 80.11111111111111)"/><use xlink:href="#X" transform="matrix(1,0,0,1,736.6383397171643,-67.33328333333344) translate(120.4567901234568 80.11111111111111)"/><use xlink:href="#ac" transform="matrix(1,0,0,1,736.6383397171643,-67.33328333333344) translate(139.5925925925926 80.11111111111111)"/><path d="M745.5 86.67a6 6 0 0 1 6-6h129.2a6 6 0 0 1 6 6v68a6 6 0 0 1-6 6H751.5a6 6 0 0 1-6-6z" stroke="#3a414a" stroke-width="2" fill="#c3f7c8"/><use xlink:href="#ad" transform="matrix(1,0,0,1,757.4880571202435,92.66671666666662) translate(37.73456790123457 31.77777777777778)"/><use xlink:href="#X" transform="matrix(1,0,0,1,757.4880571202435,92.66671666666662) translate(48.78395061728395 31.77777777777778)"/><use xlink:href="#ac" transform="matrix(1,0,0,1,757.4880571202435,92.66671666666662) translate(67.91975308641975 31.77777777777778)"/><path d="M818.78-117.33v18.5" stroke="#5e5e5e" stroke-width="2" fill="none"/><path d="M819.75-117.3h-1.95v-1.03h1.95z" stroke="#5e5e5e" stroke-width=".05" fill="#5e5e5e"/><path d="M818.78-83.57l-4.64-14.27h9.27z" stroke="#5e5e5e" stroke-width="2" fill="#5e5e5e"/><path d="M816.1 42.67v18.5" stroke="#5e5e5e" stroke-width="2" fill="none"/><path d="M817.07 42.7h-1.95v-1.03h1.95z" stroke="#5e5e5e" stroke-width=".05" fill="#5e5e5e"/><path d="M816.1 76.43l-4.64-14.27h9.27z" stroke="#5e5e5e" stroke-width="2" fill="#5e5e5e"/><path d="M811.3 202.6a8 8 0 0 1 9.6 0l70.4 52.8a4.5 4.5 0 0 1 0 7.2l-70.4 52.8a8 8 0 0 1-9.6 0l-70.4-52.8a4.5 4.5 0 0 1 0-7.2z" stroke="#3a414a" stroke-width="2" fill="#e08fff"/><use xlink:href="#ae" transform="matrix(1,0,0,1,741.0984280330231,204.00004999999987) translate(40.80746913580247 59.02777777777778)"/><use xlink:href="#af" transform="matrix(1,0,0,1,741.0984280330231,204.00004999999987) translate(65.37537037037038 59.02777777777778)"/><use xlink:href="#ag" transform="matrix(1,0,0,1,741.0984280330231,204.00004999999987) translate(84.51117283950617 59.02777777777778)"/><path d="M766.55 364.8a7.8 7.8 0 0 1 7.55-5.8h116a4.6 4.6 0 0 1 4.45 5.8l-28.9 108.4a7.8 7.8 0 0 1-7.55 5.8h-116a4.6 4.6 0 0 1-4.46-5.8z" stroke="#3a414a" stroke-width="2" fill="#fcce14"/><use xlink:href="#b" transform="matrix(1,0,0,1,741.0984280330231,364.00005) translate(31.98030864197531 31.52777777777778)"/><use xlink:href="#ah" transform="matrix(1,0,0,1,741.0984280330231,364.00005) translate(89.88154320987654 31.52777777777778)"/><use xlink:href="#ai" transform="matrix(1,0,0,1,741.0984280330231,364.00005) translate(24.980308641975306 58.19444444444445)"/><use xlink:href="#aj" transform="matrix(1,0,0,1,741.0984280330231,364.00005) translate(113.68401234567901 58.19444444444445)"/><use xlink:href="#ak" transform="matrix(1,0,0,1,741.0984280330231,364.00005) translate(32.2087037037037 84.86111111111111)"/><path d="M816.1 162.67v18.83" stroke="#5e5e5e" stroke-width="2" fill="none"/><path d="M817.07 162.7h-1.95v-1.03h1.95z" stroke="#5e5e5e" stroke-width=".05" fill="#5e5e5e"/><path d="M816.1 196.76l-4.64-14.26h9.27z" stroke="#5e5e5e" stroke-width="2" fill="#5e5e5e"/><path d="M809.62 522.8a7.35 7.35 0 0 1 9.3 0l76.43 62.4a4.9 4.9 0 0 1 0 7.6l-76.43 62.4a7.35 7.35 0 0 1-9.3 0l-76.43-62.4a4.9 4.9 0 0 1 0-7.6z" stroke="#3a414a" stroke-width="2" fill="#e08fff"/><use xlink:href="#al" transform="matrix(1,0,0,1,733.5399116841413,524.00005) translate(51.52351851851852 42.15277777777778)"/><use xlink:href="#am" transform="matrix(1,0,0,1,733.5399116841413,524.00005) translate(31.801296296296293 68.81944444444446)"/><use xlink:href="#an" transform="matrix(1,0,0,1,733.5399116841413,524.00005) translate(81.12228395061729 68.81944444444446)"/><use xlink:href="#ao" transform="matrix(1,0,0,1,733.5399116841413,524.00005) translate(111.98648148148148 68.81944444444446)"/><use xlink:href="#r" transform="matrix(1,0,0,1,733.5399116841413,524.00005) translate(45.967962962962964 95.48611111111111)"/><path d="M970.45 544.8A7.8 7.8 0 0 1 978 539h116a4.6 4.6 0 0 1 4.45 5.8l-28.9 108.4a7.8 7.8 0 0 1-7.55 5.8H946a4.6 4.6 0 0 1-4.45-5.8z" stroke="#3a414a" stroke-width="2" fill="#fcce14"/><use xlink:href="#ap" transform="matrix(1,0,0,1,945,544.0000499999999) translate(31.980308641975316 31.52777777777778)"/><use xlink:href="#i" transform="matrix(1,0,0,1,945,544.0000499999999) translate(57.84450617283951 31.52777777777778)"/><use xlink:href="#aq" transform="matrix(1,0,0,1,945,544.0000499999999) translate(26.153148148148148 58.19444444444445)"/><use xlink:href="#ar" transform="matrix(1,0,0,1,945,544.0000499999999) translate(74.3012962962963 58.19444444444445)"/><use xlink:href="#as" transform="matrix(1,0,0,1,945,544.0000499999999) translate(22.270432098765433 84.86111111111111)"/><use xlink:href="#l" transform="matrix(1,0,0,1,945,544.0000499999999) translate(58.01117283950617 84.86111111111111)"/><path d="M1160 545a6 6 0 0 1 6-6h148a6 6 0 0 1 6 6v108a6 6 0 0 1-6 6h-148a6 6 0 0 1-6-6z" stroke="#3a414a" stroke-width="2" fill="#c3f7c8"/><use xlink:href="#ad" transform="matrix(1,0,0,1,1172,551.0000499999999) translate(46.73456790123457 53.77777777777778)"/><use xlink:href="#at" transform="matrix(1,0,0,1,1172,551.0000499999999) translate(57.78395061728395 53.77777777777778)"/><use xlink:href="#au" transform="matrix(1,0,0,1,1172,551.0000499999999) translate(76.91975308641975 53.77777777777778)"/><path d="M1240 537V265a6 6 0 0 0-6-6H912.6" stroke="#5e5e5e" stroke-width="2" fill="none"/><path d="M1240.97 538h-1.94v-1.03h1.94z" stroke="#5e5e5e" stroke-width=".05" fill="#5e5e5e"/><path d="M897.34 259l14.26-4.63v9.26z" stroke="#5e5e5e" stroke-width="2" fill="#5e5e5e"/><path d="M1086.04 599h54.46" stroke="#5e5e5e" stroke-width="2" fill="none"/><path d="M1086.06 599.98h-1.28l.52-1.96h.76z" stroke="#5e5e5e" stroke-width=".05" fill="#5e5e5e"/><path d="M1155.76 599l-14.26 4.63v-9.26z" stroke="#5e5e5e" stroke-width="2" fill="#5e5e5e"/><path d="M766.55 704.8a7.8 7.8 0 0 1 7.55-5.8h116a4.6 4.6 0 0 1 4.45 5.8l-28.9 108.4a7.8 7.8 0 0 1-7.55 5.8h-116a4.6 4.6 0 0 1-4.46-5.8z" stroke="#3a414a" stroke-width="2" fill="#fcce14"/><use xlink:href="#ap" transform="matrix(1,0,0,1,741.0984280330231,704.0000499999999) translate(31.980308641975316 31.52777777777778)"/><use xlink:href="#i" transform="matrix(1,0,0,1,741.0984280330231,704.0000499999999) translate(57.84450617283951 31.52777777777778)"/><use xlink:href="#aq" transform="matrix(1,0,0,1,741.0984280330231,704.0000499999999) translate(27.38771604938271 58.19444444444445)"/><use xlink:href="#an" transform="matrix(1,0,0,1,741.0984280330231,704.0000499999999) translate(75.53586419753086 58.19444444444445)"/><use xlink:href="#ao" transform="matrix(1,0,0,1,741.0984280330231,704.0000499999999) translate(106.40006172839506 58.19444444444445)"/><use xlink:href="#l" transform="matrix(1,0,0,1,741.0984280330231,704.0000499999999) translate(40.1408024691358 84.86111111111111)"/><path d="M815.25 667.26h-1.96v-8.4h1.95z" stroke="#008a0e" stroke-width=".05" fill="#008a0e"/><path d="M814.27 657.86l.98-.06v1.1h-1.96v-1.1z" fill="#008a0e"/><path stroke="#008a0e" stroke-width=".05" fill="#008a0e"/><path d="M814.27 694.76l-2-6.16h4z" fill="#008a0e"/><path d="M814.27 697.92l-3.03-9.32h2.05l.97 3 .98-3h2.05z" stroke="#008a0e" stroke-width=".05" fill="#008a0e"/><use xlink:href="#av" transform="matrix(1,0,0,1,805.8748940307506,667.2653682195042) translate(0.005000000000000782 14.222222222222223)"/><path d="M916.1 589.98h-16.94V588h16.95z" stroke="#e81313" stroke-width=".05" fill="#e81313"/><path d="M899.18 589.98h-1.1l.08-.98-.1-.98h1.12z" fill="#e81313"/><path stroke="#e81313" stroke-width=".05" fill="#e81313"/><path d="M954.44 588.83l-14.27 4.64v-9.27z" fill="#e81313"/><path d="M957.6 588.83l-17.88 5.8v-11.6zm-16.45 3.3l10.13-3.3-10.13-3.3z" stroke="#e81313" stroke-width=".05" fill="#e81313"/><use xlink:href="#aw" transform="matrix(1,0,0,1,916.114370245505,578.2491068297519) translate(0.005000000000000782 14.222222222222223)"/><path d="M816.1 481v20.86" stroke="#5e5e5e" stroke-width="2" fill="none"/><path d="M817.07 481.03h-1.95V480h1.95z" stroke="#5e5e5e" stroke-width=".05" fill="#5e5e5e"/><path d="M816.1 517.12l-4.64-14.26h9.27z" stroke="#5e5e5e" stroke-width="2" fill="#5e5e5e"/><path d="M817.07 327.33h-1.95V319h1.95z" stroke="#008a0e" stroke-width=".05" fill="#008a0e"/><path d="M816.1 318l.97-.06v1.1h-1.95v-1.1z" fill="#008a0e"/><path stroke="#008a0e" stroke-width=".05" fill="#008a0e"/><path d="M816.1 354.76l-1.98-6.1h3.96z" fill="#008a0e"/><path d="M816.1 357.92l-3-9.25h2.04l.96 2.94.95-2.93h2.05z" stroke="#008a0e" stroke-width=".05" fill="#008a0e"/><use xlink:href="#av" transform="matrix(1,0,0,1,807.703366304628,327.334433781988) translate(0.005000000000000782 14.222222222222223)"/><path d="M809.47 862.6a8 8 0 0 1 9.6 0l70.4 52.8a4.5 4.5 0 0 1 0 7.2l-70.4 52.8a8 8 0 0 1-9.6 0l-70.4-52.8a4.5 4.5 0 0 1 0-7.2z" stroke="#3a414a" stroke-width="2" fill="#e08fff"/><use xlink:href="#e" transform="matrix(1,0,0,1,739.2699558420707,864.0000499999999) translate(36.17783950617284 45.27777777777778)"/><use xlink:href="#f" transform="matrix(1,0,0,1,739.2699558420707,864.0000499999999) translate(81.79512345679012 45.27777777777778)"/><use xlink:href="#ax" transform="matrix(1,0,0,1,739.2699558420707,864.0000499999999) translate(52.81364197530864 71.94444444444446)"/><path d="M816.1 821V841.7" stroke="#5e5e5e" stroke-width="2" fill="none"/><path d="M817.07 821.03h-1.95V820h1.95z" stroke="#5e5e5e" stroke-width=".05" fill="#5e5e5e"/><path d="M816.1 856.97l-4.64-14.27h9.27z" stroke="#5e5e5e" stroke-width="2" fill="#5e5e5e"/><path d="M960 865a6 6 0 0 1 6-6h148a6 6 0 0 1 6 6v108a6 6 0 0 1-6 6H966a6 6 0 0 1-6-6z" stroke="#3a414a" stroke-width="2" fill="#c3f7c8"/><use xlink:href="#ay" transform="matrix(1,0,0,1,972,871.0000499999999) translate(11.240740740740748 53.77777777777778)"/><use xlink:href="#X" transform="matrix(1,0,0,1,972,871.0000499999999) translate(42.104938271604944 53.77777777777778)"/><use xlink:href="#az" transform="matrix(1,0,0,1,972,871.0000499999999) translate(61.24074074074075 53.77777777777778)"/><use xlink:href="#aA" transform="matrix(1,0,0,1,972,871.0000499999999) translate(99.45061728395062 53.77777777777778)"/><path d="M737.08 1045a6 6 0 0 1 6-6h148a6 6 0 0 1 6 6v108a6 6 0 0 1-6 6h-148a6 6 0 0 1-6-6z" stroke="#3a414a" stroke-width="2" fill="#c3f7c8"/><use xlink:href="#ay" transform="matrix(1,0,0,1,749.0798233682824,1051.0000499999999) translate(11.240740740740748 53.77777777777778)"/><use xlink:href="#X" transform="matrix(1,0,0,1,749.0798233682824,1051.0000499999999) translate(42.104938271604944 53.77777777777778)"/><use xlink:href="#az" transform="matrix(1,0,0,1,749.0798233682824,1051.0000499999999) translate(61.24074074074075 53.77777777777778)"/><use xlink:href="#aB" transform="matrix(1,0,0,1,749.0798233682824,1051.0000499999999) translate(99.45061728395062 53.77777777777778)"/><path d="M815.25 1019.5h-1.96v-.83h1.95zm0-22.17h-1.96V979h1.95z" stroke="#008a0e" stroke-width=".05" fill="#008a0e"/><path d="M814.27 978l.98-.06v1.1h-1.96v-1.1z" fill="#008a0e"/><path stroke="#008a0e" stroke-width=".05" fill="#008a0e"/><path d="M814.27 1034.76l-4.63-14.26h9.26z" fill="#008a0e"/><path d="M814.27 1037.92l-5.98-18.4h11.95zm-3.3-16.45l3.3 10.14 3.3-10.13z" stroke="#008a0e" stroke-width=".05" fill="#008a0e"/><use xlink:href="#av" transform="matrix(1,0,0,1,805.8748941136756,997.3344361278193) translate(0.005000000000000782 14.222222222222223)"/><path d="M913.84 919.98h-20.57V918h20.57zm26.66 0h-3.06V918h3.06z" stroke="#e81313" stroke-width=".05" fill="#e81313"/><path d="M893.3 919.98h-1.12l.1-.98-.1-.98h1.12z" fill="#e81313"/><path stroke="#e81313" stroke-width=".05" fill="#e81313"/><path d="M955.76 919l-14.26 4.63v-9.26z" fill="#e81313"/><path d="M958.92 919l-18.4 5.98v-11.96zm-16.45 3.3l10.14-3.3-10.13-3.3z" stroke="#e81313" stroke-width=".05" fill="#e81313"/><use xlink:href="#aw" transform="matrix(1,0,0,1,913.8346702523639,908.3333833333332) translate(0.005000000000000782 14.222222222222223)"/><path d="M737.08 1225a6 6 0 0 1 6-6h148a6 6 0 0 1 6 6v108a6 6 0 0 1-6 6h-148a6 6 0 0 1-6-6z" stroke="#3a414a" stroke-width="2" fill="#c3f7c8"/><use xlink:href="#aC" transform="matrix(1,0,0,1,749.0798233682824,1231.0000499999999) translate(28.185185185185183 53.77777777777778)"/><use xlink:href="#X" transform="matrix(1,0,0,1,749.0798233682824,1231.0000499999999) translate(76.33333333333334 53.77777777777778)"/><use xlink:href="#ac" transform="matrix(1,0,0,1,749.0798233682824,1231.0000499999999) translate(95.46913580246914 53.77777777777778)"/><path d="M817.08 1161v38.5" stroke="#5e5e5e" stroke-width="2" fill="none"/><path d="M818.05 1161.03h-1.94V1160h1.95z" stroke="#5e5e5e" stroke-width=".05" fill="#5e5e5e"/><path d="M817.08 1214.76l-4.63-14.26h9.26z" stroke="#5e5e5e" stroke-width="2" fill="#5e5e5e"/><path d="M1040 981v292a6 6 0 0 1-6 6H916.58" stroke="#5e5e5e" stroke-width="2" fill="none"/><path d="M1040.97 981.03h-1.94V980h1.94z" stroke="#5e5e5e" stroke-width=".05" fill="#5e5e5e"/><path d="M901.32 1279l14.26-4.63v9.27z" stroke="#5e5e5e" stroke-width="2" fill="#5e5e5e"/><path d="M812.28 1402.6a8 8 0 0 1 9.6 0l70.4 52.8a4.5 4.5 0 0 1 0 7.2l-70.4 52.8a8 8 0 0 1-9.6 0l-70.4-52.8a4.5 4.5 0 0 1 0-7.2z" stroke="#3a414a" stroke-width="2" fill="#e08fff"/><g><use xlink:href="#aD" transform="matrix(1,0,0,1,742.0798233682824,1404.0000499999999) translate(15.498827160493827 59.02777777777778)"/><use xlink:href="#af" transform="matrix(1,0,0,1,742.0798233682824,1404.0000499999999) translate(59.88154320987654 59.02777777777778)"/><use xlink:href="#aE" transform="matrix(1,0,0,1,742.0798233682824,1404.0000499999999) translate(79.01734567901234 59.02777777777778)"/></g><path d="M817.08 1341v40.5" stroke="#5e5e5e" stroke-width="2" fill="none"/><path d="M818.05 1341.03h-1.94V1340h1.95z" stroke="#5e5e5e" stroke-width=".05" fill="#5e5e5e"/><path d="M817.08 1396.76l-4.63-14.26h9.26z" stroke="#5e5e5e" stroke-width="2" fill="#5e5e5e"/><path d="M812.28 1562.6a8 8 0 0 1 9.6 0l70.4 52.8a4.5 4.5 0 0 1 0 7.2l-70.4 52.8a8 8 0 0 1-9.6 0l-70.4-52.8a4.5 4.5 0 0 1 0-7.2z" stroke="#3a414a" stroke-width="2" fill="#e08fff"/><g><use xlink:href="#aD" transform="matrix(1,0,0,1,742.0798233682824,1564.0000499999999) translate(15.807469135802473 59.02777777777778)"/><use xlink:href="#aF" transform="matrix(1,0,0,1,742.0798233682824,1564.0000499999999) translate(60.190185185185186 59.02777777777778)"/><use xlink:href="#ax" transform="matrix(1,0,0,1,742.0798233682824,1564.0000499999999) translate(89.81981481481482 59.02777777777778)"/></g><path d="M818.05 1528.33h-1.94V1519h1.95z" stroke="#008a0e" stroke-width=".05" fill="#008a0e"/><path d="M817.08 1518l.97-.06v1.1h-1.94v-1.1z" fill="#008a0e"/><path stroke="#008a0e" stroke-width=".05" fill="#008a0e"/><path d="M817.08 1556.76l-2.3-7.1h4.6z" fill="#008a0e"/><path d="M817.08 1559.92l-3.33-10.25h2.05l1.28 3.94 1.28-3.93h2.05z" stroke="#008a0e" stroke-width=".05" fill="#008a0e"/><g><use xlink:href="#av" transform="matrix(1,0,0,1,808.6847616398874,1528.3333833333331) translate(0.005000000000000782 14.222222222222223)"/></g><path d="M764.72 1724.8a7.8 7.8 0 0 1 7.55-5.8h116a4.6 4.6 0 0 1 4.45 5.8l-28.9 108.4a7.8 7.8 0 0 1-7.55 5.8h-116a4.6 4.6 0 0 1-4.45-5.8z" stroke="#3a414a" stroke-width="2" fill="#fcce14"/><g><use xlink:href="#aG" transform="matrix(1,0,0,1,739.2699558420707,1724.0000499999996) translate(20.13462962962963 59.02777777777778)"/><use xlink:href="#aH" transform="matrix(1,0,0,1,739.2699558420707,1724.0000499999996) translate(106.18401234567901 59.02777777777778)"/></g><path d="M734.27 1885a6 6 0 0 1 6-6h148a6 6 0 0 1 6 6v108a6 6 0 0 1-6 6h-148a6 6 0 0 1-6-6z" stroke="#3a414a" stroke-width="2" fill="#c3f7c8"/><g><use xlink:href="#aC" transform="matrix(1,0,0,1,746.2699558420707,1891.0000499999996) translate(28.185185185185183 53.77777777777778)"/><use xlink:href="#at" transform="matrix(1,0,0,1,746.2699558420707,1891.0000499999996) translate(76.33333333333334 53.77777777777778)"/><use xlink:href="#au" transform="matrix(1,0,0,1,746.2699558420707,1891.0000499999996) translate(95.46913580246914 53.77777777777778)"/></g><path d="M440 1565a6 6 0 0 1 6-6h148a6 6 0 0 1 6 6v108a6 6 0 0 1-6 6H446a6 6 0 0 1-6-6z" stroke="#3a414a" stroke-width="2" fill="#c3f7c8"/><g><use xlink:href="#ay" transform="matrix(1,0,0,1,452,1571.0000499999999) translate(36.827160493827165 53.77777777777778)"/><use xlink:href="#at" transform="matrix(1,0,0,1,452,1571.0000499999999) translate(67.69135802469137 53.77777777777778)"/><use xlink:href="#au" transform="matrix(1,0,0,1,452,1571.0000499999999) translate(86.82716049382717 53.77777777777778)"/></g><path d="M818.05 1687.33h-1.94V1679h1.95z" stroke="#008a0e" stroke-width=".05" fill="#008a0e"/><path d="M817.08 1678l.97-.06v1.1h-1.94v-1.1z" fill="#008a0e"/><path stroke="#008a0e" stroke-width=".05" fill="#008a0e"/><path d="M817.08 1714.76l-1.98-6.1h3.96z" fill="#008a0e"/><path d="M817.08 1717.92l-3-9.25h2.04l.96 2.94.95-2.93h2.06z" stroke="#008a0e" stroke-width=".05" fill="#008a0e"/><g><use xlink:href="#av" transform="matrix(1,0,0,1,808.6847616398874,1687.334432885737) translate(0.005000000000000782 14.222222222222223)"/></g><path d="M814.27 1841v18.5" stroke="#5e5e5e" stroke-width="2" fill="none"/><path d="M815.25 1841.03h-1.96V1840h1.95z" stroke="#5e5e5e" stroke-width=".05" fill="#5e5e5e"/><path d="M814.27 1874.76l-4.63-14.26h9.26z" stroke="#5e5e5e" stroke-width="2" fill="#5e5e5e"/><path d="M-1030.55 1126a6 6 0 0 1 6-6h166.66a6 6 0 0 1 6 6v108a6 6 0 0 1-6 6h-166.65a6 6 0 0 1-6-6z" stroke="#3a414a" stroke-width="2" fill="#c3f7c8"/><g><use xlink:href="#aI" transform="matrix(1,0,0,1,-1018.5518545638977,1132) translate(7.53086419753086 38.77777777777778)"/><use xlink:href="#at" transform="matrix(1,0,0,1,-1018.5518545638977,1132) translate(115.98765432098766 38.77777777777778)"/><use xlink:href="#aJ" transform="matrix(1,0,0,1,-1018.5518545638977,1132) translate(135.12345679012344 38.77777777777778)"/><use xlink:href="#ab" transform="matrix(1,0,0,1,-1018.5518545638977,1132) translate(5.061728395061721 65.44444444444446)"/><use xlink:href="#at" transform="matrix(1,0,0,1,-1018.5518545638977,1132) translate(118.4567901234568 65.44444444444446)"/><use xlink:href="#au" transform="matrix(1,0,0,1,-1018.5518545638977,1132) translate(137.5925925925926 65.44444444444446)"/></g><path d="M-940 1062v38.5" stroke="#5e5e5e" stroke-width="2" fill="none"/><path d="M-939.02 1062.03H-941V1061h1.96z" stroke="#5e5e5e" stroke-width=".05" fill="#5e5e5e"/><path d="M-940 1115.76l-4.63-14.26h9.26z" stroke="#5e5e5e" stroke-width="2" fill="#5e5e5e"/><path d="M732.27 1939H526a6 6 0 0 1-6-6v-234.5" stroke="#5e5e5e" stroke-width="2" fill="none"/><path d="M733.27 1939.97h-1.03v-1.94h1.03z" stroke="#5e5e5e" stroke-width=".05" fill="#5e5e5e"/><path d="M520 1683.24l4.63 14.26h-9.26z" stroke="#5e5e5e" stroke-width="2" fill="#5e5e5e"/><path d="M658.24 1619.97H619.5v-1.94h38.74zm79.84 0h-56.24v-1.94h56.24z" stroke="#e81313" stroke-width=".05" fill="#e81313"/><path d="M739.08 1619l.1.97h-1.13v-1.94h1.12z" fill="#e81313"/><path stroke="#e81313" stroke-width=".05" fill="#e81313"/><path d="M618.5 1623.63l-14.26-4.63 14.26-4.63z" fill="#e81313"/><path d="M619.48 1624.98l-18.4-5.98 18.4-5.98zm-12.1-5.98l10.15 3.3v-6.6z" stroke="#e81313" stroke-width=".05" fill="#e81313"/><g><use xlink:href="#aw" transform="matrix(1,0,0,1,658.2352810812076,1608.3333833333331) translate(0.005000000000000782 14.222222222222223)"/></g><path d="M520 1557v-92a6 6 0 0 1 6-6h194.57" stroke="#5e5e5e" stroke-width="2" fill="none"/><path d="M520.98 1558H519v-1.03H521z" stroke="#5e5e5e" stroke-width=".05" fill="#5e5e5e"/><path d="M735.84 1459l-14.27 4.63v-9.27z" stroke="#5e5e5e" stroke-width="2" fill="#5e5e5e"/><path d="M1240.97 1453.04l-.08 1.05-.26 1.06-.42 1-.58.94-.7.83-.84.7-.93.6-1 .4-1.08.26-1.06.07H896.08v-1.94h337.88l.83-.07.75-.18.73-.3.67-.42.6-.5.5-.6.42-.68.3-.73.2-.76.06-.84v-210.34h1.94zm0-231.75h-1.94V678.5h1.94z" stroke="#e81313" stroke-width=".05" fill="#e81313"/><path d="M896.1 1459.97H895l.08-.97-.1-.97h1.13z" fill="#e81313"/><path stroke="#e81313" stroke-width=".05" fill="#e81313"/><path d="M1244.63 677.5h-9.27l4.64-14.26z" fill="#e81313"/><path d="M1245.98 678.48h-11.96l5.98-18.4zm-9.27-1.95h6.6l-3.3-10.14z" stroke="#e81313" stroke-width=".05" fill="#e81313"/><g><use xlink:href="#aw" transform="matrix(1,0,0,1,1228.1975308641975,1221.2913101820607) translate(0.005000000000000782 14.222222222222223)"/></g><path d="M737.1 258.02v1.96h-85.75v-1.96zm-177.6.3v-1.96h68.25v1.95z" stroke="#e81313" stroke-width=".05" fill="#e81313"/><path d="M738.1 259l.08.98h-1.1v-1.96h1.1z" fill="#e81313"/><path stroke="#e81313" stroke-width=".05" fill="#e81313"/><path d="M558.5 261.97l-14.26-4.64 14.26-4.63z" fill="#e81313"/><path d="M559.48 263.3l-18.4-5.97 18.4-5.97zm-12.1-5.97l10.15 3.3v-6.6z" stroke="#e81313" stroke-width=".05" fill="#e81313"/><g><use xlink:href="#aw" transform="matrix(1,0,0,1,627.744583413578,247.50004999999985) translate(0.005000000000000782 14.222222222222223)"/></g><path d="M360 193.33a6 6 0 0 1 6-6h168a6 6 0 0 1 6 6v128a6 6 0 0 1-6 6H366a6 6 0 0 1-6-6z" stroke="#3a414a" stroke-width="2" fill="#c3f7c8"/><g><use xlink:href="#W" transform="matrix(1,0,0,1,372,199.33338333333313) translate(38.24691358024692 35.90277777777778)"/><use xlink:href="#aK" transform="matrix(1,0,0,1,372,199.33338333333313) translate(104.79012345679013 35.90277777777778)"/><use xlink:href="#Z" transform="matrix(1,0,0,1,372,199.33338333333313) translate(20.685185185185183 62.56944444444445)"/><use xlink:href="#aL" transform="matrix(1,0,0,1,372,199.33338333333313) translate(129.14197530864197 62.56944444444445)"/><use xlink:href="#aM" transform="matrix(1,0,0,1,372,199.33338333333313) translate(24.38888888888888 89.23611111111111)"/></g><path d="M36.68 193.13a7.8 7.8 0 0 1 7.54-5.8H234a4.6 4.6 0 0 1 4.45 5.8l-35.13 131.74a7.8 7.8 0 0 1-7.54 5.8H6a4.6 4.6 0 0 1-4.45-5.8z" stroke="#3a414a" stroke-width="2" fill="#fcce14"/><g><use xlink:href="#aG" transform="matrix(1,0,0,1,5,192.3333833333332) translate(33.86302469135802 42.90277777777778)"/><use xlink:href="#aN" transform="matrix(1,0,0,1,5,192.3333833333332) translate(119.9124074074074 42.90277777777778)"/><use xlink:href="#n" transform="matrix(1,0,0,1,5,192.3333833333332) translate(186.45561728395063 42.90277777777778)"/><use xlink:href="#aO" transform="matrix(1,0,0,1,5,192.3333833333332) translate(20.56672839506174 69.56944444444446)"/><use xlink:href="#P" transform="matrix(1,0,0,1,5,192.3333833333332) translate(55.07290123456791 69.56944444444446)"/><use xlink:href="#aP" transform="matrix(1,0,0,1,5,192.3333833333332) translate(147.542037037037 69.56944444444446)"/><use xlink:href="#as" transform="matrix(1,0,0,1,5,192.3333833333332) translate(62.27043209876543 96.23611111111111)"/><use xlink:href="#l" transform="matrix(1,0,0,1,5,192.3333833333332) translate(98.01117283950617 96.23611111111111)"/></g><path d="M-160 219c22.1 0 40 17.9 40 40s-17.9 40-40 40h-80c-22.1 0-40-17.9-40-40s17.9-40 40-40z" stroke="#3a414a" stroke-width="2" fill="#ff741d"/><g><use xlink:href="#aQ" transform="matrix(1,0,0,1,-275,224.00004999999987) translate(57.160493827160494 39.65277777777778)"/></g><path d="M358 257.33h-67.3-49.82" stroke="#5e5e5e" stroke-width="2" fill="none"/><path d="M359 258.3h-1.03v-1.94H359z" stroke="#5e5e5e" stroke-width=".05" fill="#5e5e5e"/><path d="M225.6 257.32l14.28-4.64v9.27z" stroke="#5e5e5e" stroke-width="2" fill="#5e5e5e"/><path d="M17.08 259H-100.5" stroke="#5e5e5e" stroke-width="2" fill="none"/><path d="M17.82 259.98h-.77v-1.96h1.3z" stroke="#5e5e5e" stroke-width=".05" fill="#5e5e5e"/><path d="M-115.76 259l14.26-4.63v9.26z" stroke="#5e5e5e" stroke-width="2" fill="#5e5e5e"/><path d="M860-380c0 22.1-17.9 40-40 40s-40-17.9-40-40 17.9-40 40-40 40 17.9 40 40z" stroke="#3a414a" stroke-width="2" fill="#fff"/><g><use xlink:href="#aR" transform="matrix(1,0,0,1,785,-415) translate(28.82716049382716 39.65277777777778)"/></g><path d="M-901.22 1340c0 22.1-17.9 40-40 40s-40-17.9-40-40 17.9-40 40-40 40 17.9 40 40z" stroke="#3a414a" stroke-width="2" fill="#fff"/><g><use xlink:href="#aR" transform="matrix(1,0,0,1,-976.2207418255591,1305) translate(28.82716049382716 39.65277777777778)"/></g><path d="M-941.22 1242v38.5" stroke="#5e5e5e" stroke-width="2" fill="none"/><path d="M-940.25 1242.03h-1.95V1241h1.95z" stroke="#5e5e5e" stroke-width=".05" fill="#5e5e5e"/><path d="M-941.22 1295.76l-4.64-14.26h9.27z" stroke="#5e5e5e" stroke-width="2" fill="#5e5e5e"/><path d="M820-338v37.5" stroke="#5e5e5e" stroke-width="2" fill="none"/><path d="M820-339l.98-.03v1.06H819v-1.1z" stroke="#5e5e5e" stroke-width=".05" fill="#5e5e5e"/><path d="M820-285.24l-4.63-14.26h9.26z" stroke="#5e5e5e" stroke-width="2" fill="#5e5e5e"/><defs><path fill="#fff" d="M14 0l48-248h34L48 0H14" id="aS"/><path fill="#fff" d="M67-158c22-48 132-52 116 29L158 0h-32l25-140c3-38-53-32-70-12C52-117 51-52 38 0H6l36-190h30" id="aT"/><path fill="#fff" d="M50-231l6-30h32l-6 30H50zM6 0l37-190h31L37 0H6" id="aU"/><path fill="#fff" d="M44-68c0 29 11 47 38 47 30 0 42-19 51-41l28 9C148-21 126 4 82 4 31 4 10-29 12-85c3-77 74-140 146-93 12 8 15 23 18 40l-31 5c-1-22-13-36-36-36-52 0-65 49-65 101" id="aV"/><path fill="#fff" d="M30-147c31-64 166-65 159 27C183-49 158 1 86 4 9 8 1-88 30-147zM88-20c53 0 68-48 68-100 0-31-11-51-44-50-52 1-68 46-68 97 0 32 13 53 44 53" id="aW"/><g id="a"><use transform="matrix(0.05,0,0,0.05,0,0)" xlink:href="#aS"/><use transform="matrix(0.05,0,0,0.05,5,0)" xlink:href="#aT"/><use transform="matrix(0.05,0,0,0.05,15,0)" xlink:href="#aU"/><use transform="matrix(0.05,0,0,0.05,18.95,0)" xlink:href="#aV"/><use transform="matrix(0.05,0,0,0.05,27.950000000000003,0)" xlink:href="#aU"/><use transform="matrix(0.05,0,0,0.05,31.899999999999995,0)" xlink:href="#aW"/></g><path d="M30-248c87 1 191-15 191 75 0 78-77 80-158 76V0H30v-248zm33 125c57 0 124 11 124-50 0-59-68-47-124-48v98" id="aX"/><path d="M100-194c63 0 86 42 84 106H49c0 40 14 67 53 68 26 1 43-12 49-29l28 8c-11 28-37 45-77 45C44 4 14-33 15-96c1-61 26-98 85-98zm52 81c6-60-76-77-97-28-3 7-6 17-6 28h103" id="aY"/><path d="M85-194c31 0 48 13 60 33l-1-100h32l1 261h-30c-2-10 0-23-3-31C134-8 116 4 85 4 32 4 16-35 15-94c0-66 23-100 70-100zm9 24c-40 0-46 34-46 75 0 40 6 74 45 74 42 0 51-32 51-76 0-42-9-74-50-73" id="aZ"/><path d="M24-231v-30h32v30H24zM24 0v-190h32V0H24" id="ba"/><path d="M114-163C36-179 61-72 57 0H25l-1-190h30c1 12-1 29 2 39 6-27 23-49 58-41v29" id="bb"/><g id="b"><use transform="matrix(0.06172839506172839,0,0,0.06172839506172839,0,0)" xlink:href="#aX"/><use transform="matrix(0.06172839506172839,0,0,0.06172839506172839,14.814814814814813,0)" xlink:href="#aY"/><use transform="matrix(0.06172839506172839,0,0,0.06172839506172839,27.160493827160494,0)" xlink:href="#aZ"/><use transform="matrix(0.06172839506172839,0,0,0.06172839506172839,39.50617283950617,0)" xlink:href="#ba"/><use transform="matrix(0.06172839506172839,0,0,0.06172839506172839,44.382716049382715,0)" xlink:href="#bb"/></g><path d="M108 0H70L1-190h34L89-25l56-165h34" id="bc"/><path d="M141-36C126-15 110 5 73 4 37 3 15-17 15-53c-1-64 63-63 125-63 3-35-9-54-41-54-24 1-41 7-42 31l-33-3c5-37 33-52 76-52 45 0 72 20 72 64v82c-1 20 7 32 28 27v20c-31 9-61-2-59-35zM48-53c0 20 12 33 32 33 41-3 63-29 60-74-43 2-92-5-92 41" id="bd"/><path d="M24 0v-261h32V0H24" id="be"/><path d="M100-194c62-1 85 37 85 99 1 63-27 99-86 99S16-35 15-95c0-66 28-99 85-99zM99-20c44 1 53-31 53-75 0-43-8-75-51-75s-53 32-53 75 10 74 51 75" id="bf"/><g id="c"><use transform="matrix(0.06172839506172839,0,0,0.06172839506172839,0,0)" xlink:href="#bc"/><use transform="matrix(0.06172839506172839,0,0,0.06172839506172839,11.11111111111111,0)" xlink:href="#bd"/><use transform="matrix(0.06172839506172839,0,0,0.06172839506172839,23.45679012345679,0)" xlink:href="#be"/><use transform="matrix(0.06172839506172839,0,0,0.06172839506172839,28.333333333333336,0)" xlink:href="#bf"/><use transform="matrix(0.06172839506172839,0,0,0.06172839506172839,40.67901234567901,0)" xlink:href="#bb"/></g><path d="M177-190C167-65 218 103 67 71c-23-6-38-20-44-43l32-5c15 47 100 32 89-28v-30C133-14 115 1 83 1 29 1 15-40 15-95c0-56 16-97 71-98 29-1 48 16 59 35 1-10 0-23 2-32h30zM94-22c36 0 50-32 50-73 0-42-14-75-50-75-39 0-46 34-46 75s6 73 46 73" id="bg"/><path d="M27 0v-27h64v-190l-56 39v-29l58-41h29v221h61V0H27" id="bh"/><g id="d"><use transform="matrix(0.06172839506172839,0,0,0.06172839506172839,0,0)" xlink:href="#bb"/><use transform="matrix(0.06172839506172839,0,0,0.06172839506172839,7.345679012345679,0)" xlink:href="#bg"/><use transform="matrix(0.06172839506172839,0,0,0.06172839506172839,19.691358024691358,0)" xlink:href="#bh"/></g><path d="M107 61C57 61 25 39 23-9c-2-65 71-58 78-115h30c1 64-76 54-76 114 0 30 21 42 52 43 32 0 53-17 56-46l32 2c-6 46-36 72-88 72zm26-251v35H99v-35h34" id="bi"/><path d="M30 0v-248h187v28H63v79h144v27H63v87h162V0H30" id="bj"/><path d="M135-143c-3-34-86-38-87 0 15 53 115 12 119 90S17 21 10-45l28-5c4 36 97 45 98 0-10-56-113-15-118-90-4-57 82-63 122-42 12 7 21 19 24 35" id="bk"/><g id="e"><use transform="matrix(0.06172839506172839,0,0,0.06172839506172839,0,0)" xlink:href="#bi"/><use transform="matrix(0.06172839506172839,0,0,0.06172839506172839,13.518518518518517,0)" xlink:href="#bj"/><use transform="matrix(0.06172839506172839,0,0,0.06172839506172839,28.33333333333333,0)" xlink:href="#bk"/></g><g id="f"><use transform="matrix(0.06172839506172839,0,0,0.06172839506172839,0,0)" xlink:href="#bb"/><use transform="matrix(0.06172839506172839,0,0,0.06172839506172839,7.345679012345679,0)" xlink:href="#bg"/><use transform="matrix(0.06172839506172839,0,0,0.06172839506172839,19.691358024691358,0)" xlink:href="#bh"/></g><path d="M18-27v-27l151-64-151-65v-27l175 74v36" id="bl"/><path d="M18-150v-26h174v26H18zm0 90v-26h174v26H18" id="bm"/><g id="g"><use transform="matrix(0.06172839506172839,0,0,0.06172839506172839,0,0)" xlink:href="#bl"/><use transform="matrix(0.06172839506172839,0,0,0.06172839506172839,12.962962962962962,0)" xlink:href="#bm"/></g><path d="M101-251c68 0 85 55 85 127S166 4 100 4C33 4 14-52 14-124c0-73 17-127 87-127zm-1 229c47 0 54-49 54-102s-4-102-53-102c-51 0-55 48-55 102 0 53 5 102 54 102" id="bn"/><path d="M103-251c84 0 111 97 45 133-19 10-37 24-39 52H78c0-63 77-55 77-114 0-30-21-42-52-43-32 0-53 17-56 46l-32-2c7-45 34-72 88-72zM77 0v-35h34V0H77" id="bo"/><g id="h"><use transform="matrix(0.06172839506172839,0,0,0.06172839506172839,0,0)" xlink:href="#bn"/><use transform="matrix(0.06172839506172839,0,0,0.06172839506172839,12.345679012345679,0)" xlink:href="#bo"/></g><path d="M117-194c89-4 53 116 60 194h-32v-121c0-31-8-49-39-48C34-167 62-67 57 0H25l-1-190h30c1 10-1 24 2 32 11-22 29-35 61-36" id="bp"/><path d="M85 4C-4 8 31-112 24-190h32v120c0 31 7 50 39 49 72-2 45-101 50-169h31l1 190h-30c-1-10 1-25-2-33-11 22-28 36-60 37zM73-211c8-23 27-35 38-54h36v5l-58 49H73" id="bq"/><path d="M210-169c-67 3-38 105-44 169h-31v-121c0-29-5-50-35-48C34-165 62-65 56 0H25l-1-190h30c1 10-1 24 2 32 10-44 99-50 107 0 11-21 27-35 58-36 85-2 47 119 55 194h-31v-121c0-29-5-49-35-48" id="br"/><g id="i"><use transform="matrix(0.06172839506172839,0,0,0.06172839506172839,0,0)" xlink:href="#bp"/><use transform="matrix(0.06172839506172839,0,0,0.06172839506172839,12.345679012345679,0)" xlink:href="#bq"/><use transform="matrix(0.06172839506172839,0,0,0.06172839506172839,24.691358024691358,0)" xlink:href="#br"/><use transform="matrix(0.06172839506172839,0,0,0.06172839506172839,43.148148148148145,0)" xlink:href="#aY"/><use transform="matrix(0.06172839506172839,0,0,0.06172839506172839,55.49382716049382,0)" xlink:href="#bb"/><use transform="matrix(0.06172839506172839,0,0,0.06172839506172839,62.8395061728395,0)" xlink:href="#bf"/></g><path d="M141-36C126-15 110 5 73 4 37 3 15-17 15-53c-1-64 63-63 125-63 3-35-9-54-41-54-24 1-41 7-42 31l-33-3c5-37 33-52 76-52 45 0 72 20 72 64v82c-1 20 7 32 28 27v20c-31 9-61-2-59-35zM48-53c0 20 12 33 32 33 41-3 63-29 60-74-43 2-92-5-92 41zm25-158c8-23 27-35 38-54h36v5l-58 49H73" id="bs"/><path d="M141 0L90-78 38 0H4l68-98-65-92h35l48 74 47-74h35l-64 92 68 98h-35" id="bt"/><g id="j"><use transform="matrix(0.06172839506172839,0,0,0.06172839506172839,0,0)" xlink:href="#br"/><use transform="matrix(0.06172839506172839,0,0,0.06172839506172839,18.456790123456788,0)" xlink:href="#bs"/><use transform="matrix(0.06172839506172839,0,0,0.06172839506172839,30.80246913580247,0)" xlink:href="#bt"/><use transform="matrix(0.06172839506172839,0,0,0.06172839506172839,41.91358024691358,0)" xlink:href="#ba"/><use transform="matrix(0.06172839506172839,0,0,0.06172839506172839,46.79012345679013,0)" xlink:href="#br"/><use transform="matrix(0.06172839506172839,0,0,0.06172839506172839,65.24691358024691,0)" xlink:href="#bf"/></g><g id="k"><use transform="matrix(0.06172839506172839,0,0,0.06172839506172839,0,0)" xlink:href="#aZ"/><use transform="matrix(0.06172839506172839,0,0,0.06172839506172839,12.345679012345679,0)" xlink:href="#aY"/><use transform="matrix(0.06172839506172839,0,0,0.06172839506172839,24.691358024691358,0)" xlink:href="#be"/></g><g id="l"><use transform="matrix(0.06172839506172839,0,0,0.06172839506172839,0,0)" xlink:href="#bb"/><use transform="matrix(0.06172839506172839,0,0,0.06172839506172839,7.345679012345679,0)" xlink:href="#bd"/><use transform="matrix(0.06172839506172839,0,0,0.06172839506172839,19.691358024691358,0)" xlink:href="#bp"/><use transform="matrix(0.06172839506172839,0,0,0.06172839506172839,32.03703703703704,0)" xlink:href="#bg"/><use transform="matrix(0.06172839506172839,0,0,0.06172839506172839,44.382716049382715,0)" xlink:href="#bf"/></g><path d="M240 0l2-218c-23 76-54 145-80 218h-23L58-218 59 0H30v-248h44l77 211c21-75 51-140 76-211h43V0h-30" id="bu"/><path d="M24-231v-30h32v30H24zM-9 49c24 4 33-6 33-30v-209h32V24c2 40-23 58-65 49V49" id="bv"/><g id="m"><use transform="matrix(0.06172839506172839,0,0,0.06172839506172839,0,0)" xlink:href="#bu"/><use transform="matrix(0.06172839506172839,0,0,0.06172839506172839,18.456790123456788,0)" xlink:href="#aY"/><use transform="matrix(0.06172839506172839,0,0,0.06172839506172839,30.80246913580247,0)" xlink:href="#bp"/><use transform="matrix(0.06172839506172839,0,0,0.06172839506172839,43.148148148148145,0)" xlink:href="#bk"/><use transform="matrix(0.06172839506172839,0,0,0.06172839506172839,54.25925925925925,0)" xlink:href="#bd"/><use transform="matrix(0.06172839506172839,0,0,0.06172839506172839,66.60493827160494,0)" xlink:href="#bv"/><use transform="matrix(0.06172839506172839,0,0,0.06172839506172839,71.48148148148148,0)" xlink:href="#aY"/></g><g id="n"><use transform="matrix(0.06172839506172839,0,0,0.06172839506172839,0,0)" xlink:href="#aZ"/><use transform="matrix(0.06172839506172839,0,0,0.06172839506172839,12.345679012345679,0)" xlink:href="#aY"/></g><g id="o"><use transform="matrix(0.06172839506172839,0,0,0.06172839506172839,0,0)" xlink:href="#aY"/><use transform="matrix(0.06172839506172839,0,0,0.06172839506172839,12.345679012345679,0)" xlink:href="#bb"/><use transform="matrix(0.06172839506172839,0,0,0.06172839506172839,19.691358024691358,0)" xlink:href="#bb"/><use transform="matrix(0.06172839506172839,0,0,0.06172839506172839,27.037037037037038,0)" xlink:href="#bf"/><use transform="matrix(0.06172839506172839,0,0,0.06172839506172839,39.382716049382715,0)" xlink:href="#bb"/></g><use transform="matrix(0.06172839506172839,0,0,0.06172839506172839,0,0)" xlink:href="#bl" id="p"/><path d="M34 0v-190h32V0H34zM24-211c8-23 27-35 38-54h36v5l-58 49H24" id="bw"/><g id="q"><use transform="matrix(0.06172839506172839,0,0,0.06172839506172839,0,0)" xlink:href="#br"/><use transform="matrix(0.06172839506172839,0,0,0.06172839506172839,18.456790123456788,0)" xlink:href="#bw"/><use transform="matrix(0.06172839506172839,0,0,0.06172839506172839,24.629629629629626,0)" xlink:href="#bp"/><use transform="matrix(0.06172839506172839,0,0,0.06172839506172839,36.9753086419753,0)" xlink:href="#ba"/><use transform="matrix(0.06172839506172839,0,0,0.06172839506172839,41.85185185185185,0)" xlink:href="#br"/><use transform="matrix(0.06172839506172839,0,0,0.06172839506172839,60.30864197530863,0)" xlink:href="#bf"/></g><g id="r"><use transform="matrix(0.06172839506172839,0,0,0.06172839506172839,0,0)" xlink:href="#bb"/><use transform="matrix(0.06172839506172839,0,0,0.06172839506172839,7.345679012345679,0)" xlink:href="#bd"/><use transform="matrix(0.06172839506172839,0,0,0.06172839506172839,19.691358024691358,0)" xlink:href="#bp"/><use transform="matrix(0.06172839506172839,0,0,0.06172839506172839,32.03703703703704,0)" xlink:href="#bg"/><use transform="matrix(0.06172839506172839,0,0,0.06172839506172839,44.382716049382715,0)" xlink:href="#bf"/><use transform="matrix(0.06172839506172839,0,0,0.06172839506172839,56.72839506172839,0)" xlink:href="#bo"/></g><path d="M30-248c118-7 216 8 213 122C240-48 200 0 122 0H30v-248zM63-27c89 8 146-16 146-99s-60-101-146-95v194" id="bx"/><path d="M101-234c-31-9-42 10-38 44h38v23H63V0H32v-167H5v-23h27c-7-52 17-82 69-68v24" id="by"/><g id="s"><use transform="matrix(0.06172839506172839,0,0,0.06172839506172839,0,0)" xlink:href="#bx"/><use transform="matrix(0.06172839506172839,0,0,0.06172839506172839,15.987654320987653,0)" xlink:href="#aY"/><use transform="matrix(0.06172839506172839,0,0,0.06172839506172839,28.333333333333332,0)" xlink:href="#by"/><use transform="matrix(0.06172839506172839,0,0,0.06172839506172839,34.50617283950617,0)" xlink:href="#ba"/><use transform="matrix(0.06172839506172839,0,0,0.06172839506172839,39.382716049382715,0)" xlink:href="#bp"/><use transform="matrix(0.06172839506172839,0,0,0.06172839506172839,51.72839506172839,0)" xlink:href="#ba"/><use transform="matrix(0.06172839506172839,0,0,0.06172839506172839,56.60493827160494,0)" xlink:href="#bb"/></g><path d="M115-194c53 0 69 39 70 98 0 66-23 100-70 100C84 3 66-7 56-30L54 0H23l1-261h32v101c10-23 28-34 59-34zm-8 174c40 0 45-34 45-75 0-40-5-75-45-74-42 0-51 32-51 76 0 43 10 73 51 73" id="bz"/><g id="t"><use transform="matrix(0.06172839506172839,0,0,0.06172839506172839,0,0)" xlink:href="#bc"/><use transform="matrix(0.06172839506172839,0,0,0.06172839506172839,11.11111111111111,0)" xlink:href="#bd"/><use transform="matrix(0.06172839506172839,0,0,0.06172839506172839,23.45679012345679,0)" xlink:href="#bb"/><use transform="matrix(0.06172839506172839,0,0,0.06172839506172839,30.80246913580247,0)" xlink:href="#ba"/><use transform="matrix(0.06172839506172839,0,0,0.06172839506172839,35.67901234567901,0)" xlink:href="#bd"/><use transform="matrix(0.06172839506172839,0,0,0.06172839506172839,48.02469135802469,0)" xlink:href="#bz"/><use transform="matrix(0.06172839506172839,0,0,0.06172839506172839,60.37037037037037,0)" xlink:href="#be"/><use transform="matrix(0.06172839506172839,0,0,0.06172839506172839,65.24691358024691,0)" xlink:href="#aY"/><use transform="matrix(0.06172839506172839,0,0,0.06172839506172839,77.5925925925926,0)" xlink:href="#bk"/></g><path d="M68-38c1 34 0 65-14 84H32c9-13 17-26 17-46H33v-38h35" id="bA"/><g id="u"><use transform="matrix(0.06172839506172839,0,0,0.06172839506172839,0,0)" xlink:href="#bb"/><use transform="matrix(0.06172839506172839,0,0,0.06172839506172839,7.345679012345679,0)" xlink:href="#bg"/><use transform="matrix(0.06172839506172839,0,0,0.06172839506172839,19.691358024691358,0)" xlink:href="#bh"/><use transform="matrix(0.06172839506172839,0,0,0.06172839506172839,32.03703703703704,0)" xlink:href="#bA"/></g><path d="M101-251c82-7 93 87 43 132L82-64C71-53 59-42 53-27h129V0H18c2-99 128-94 128-182 0-28-16-43-45-43s-46 15-49 41l-32-3c6-41 34-60 81-64" id="bB"/><g id="v"><use transform="matrix(0.06172839506172839,0,0,0.06172839506172839,0,0)" xlink:href="#bb"/><use transform="matrix(0.06172839506172839,0,0,0.06172839506172839,7.345679012345679,0)" xlink:href="#bg"/><use transform="matrix(0.06172839506172839,0,0,0.06172839506172839,19.691358024691358,0)" xlink:href="#bB"/><use transform="matrix(0.06172839506172839,0,0,0.06172839506172839,32.03703703703704,0)" xlink:href="#bA"/></g><g id="w"><use transform="matrix(0.06172839506172839,0,0,0.06172839506172839,0,0)" xlink:href="#ba"/><use transform="matrix(0.06172839506172839,0,0,0.06172839506172839,4.876543209876543,0)" xlink:href="#bA"/></g><g id="x"><use transform="matrix(0.06172839506172839,0,0,0.06172839506172839,0,0)" xlink:href="#bp"/><use transform="matrix(0.06172839506172839,0,0,0.06172839506172839,12.345679012345679,0)" xlink:href="#bA"/></g><path d="M84 4C-5 8 30-112 23-190h32v120c0 31 7 50 39 49 72-2 45-101 50-169h31l1 190h-30c-1-10 1-25-2-33-11 22-28 36-60 37" id="bC"/><g id="y"><use transform="matrix(0.06172839506172839,0,0,0.06172839506172839,0,0)" xlink:href="#bp"/><use transform="matrix(0.06172839506172839,0,0,0.06172839506172839,12.345679012345679,0)" xlink:href="#bC"/><use transform="matrix(0.06172839506172839,0,0,0.06172839506172839,24.691358024691358,0)" xlink:href="#br"/><use transform="matrix(0.06172839506172839,0,0,0.06172839506172839,43.148148148148145,0)" xlink:href="#bA"/></g><path d="M115-194c55 1 70 41 70 98S169 2 115 4C84 4 66-9 55-30l1 105H24l-1-265h31l2 30c10-21 28-34 59-34zm-8 174c40 0 45-34 45-75s-6-73-45-74c-42 0-51 32-51 76 0 43 10 73 51 73" id="bD"/><g id="z"><use transform="matrix(0.06172839506172839,0,0,0.06172839506172839,0,0)" xlink:href="#bD"/><use transform="matrix(0.06172839506172839,0,0,0.06172839506172839,12.345679012345679,0)" xlink:href="#bA"/></g><g id="A"><use transform="matrix(0.06172839506172839,0,0,0.06172839506172839,0,0)" xlink:href="#bp"/><use transform="matrix(0.06172839506172839,0,0,0.06172839506172839,12.345679012345679,0)" xlink:href="#bD"/><use transform="matrix(0.06172839506172839,0,0,0.06172839506172839,24.691358024691358,0)" xlink:href="#bA"/></g><path d="M96-169c-40 0-48 33-48 73s9 75 48 75c24 0 41-14 43-38l32 2c-6 37-31 61-74 61-59 0-76-41-82-99-10-93 101-131 147-64 4 7 5 14 7 22l-32 3c-4-21-16-35-41-35" id="bE"/><path d="M59-47c-2 24 18 29 38 22v24C64 9 27 4 27-40v-127H5v-23h24l9-43h21v43h35v23H59v120" id="bF"/><g id="B"><use transform="matrix(0.06172839506172839,0,0,0.06172839506172839,0,0)" xlink:href="#bE"/><use transform="matrix(0.06172839506172839,0,0,0.06172839506172839,11.11111111111111,0)" xlink:href="#bd"/><use transform="matrix(0.06172839506172839,0,0,0.06172839506172839,23.45679012345679,0)" xlink:href="#bp"/><use transform="matrix(0.06172839506172839,0,0,0.06172839506172839,35.80246913580247,0)" xlink:href="#bF"/><use transform="matrix(0.06172839506172839,0,0,0.06172839506172839,41.97530864197531,0)" xlink:href="#bA"/></g><g id="C"><use transform="matrix(0.06172839506172839,0,0,0.06172839506172839,0,0)" xlink:href="#bk"/><use transform="matrix(0.06172839506172839,0,0,0.06172839506172839,11.11111111111111,0)" xlink:href="#bC"/><use transform="matrix(0.06172839506172839,0,0,0.06172839506172839,23.45679012345679,0)" xlink:href="#br"/><use transform="matrix(0.06172839506172839,0,0,0.06172839506172839,41.91358024691358,0)" xlink:href="#br"/><use transform="matrix(0.06172839506172839,0,0,0.06172839506172839,60.37037037037037,0)" xlink:href="#aY"/><use transform="matrix(0.06172839506172839,0,0,0.06172839506172839,72.71604938271605,0)" xlink:href="#aZ"/><use transform="matrix(0.06172839506172839,0,0,0.06172839506172839,85.06172839506173,0)" xlink:href="#ba"/><use transform="matrix(0.06172839506172839,0,0,0.06172839506172839,89.93827160493828,0)" xlink:href="#bd"/><use transform="matrix(0.06172839506172839,0,0,0.06172839506172839,102.28395061728396,0)" xlink:href="#bA"/></g><g id="D"><use transform="matrix(0.06172839506172839,0,0,0.06172839506172839,0,0)" xlink:href="#ba"/><use transform="matrix(0.06172839506172839,0,0,0.06172839506172839,4.876543209876543,0)" xlink:href="#bF"/><use transform="matrix(0.06172839506172839,0,0,0.06172839506172839,11.049382716049383,0)" xlink:href="#aY"/><use transform="matrix(0.06172839506172839,0,0,0.06172839506172839,23.395061728395063,0)" xlink:href="#bb"/><use transform="matrix(0.06172839506172839,0,0,0.06172839506172839,30.74074074074074,0)" xlink:href="#bd"/><use transform="matrix(0.06172839506172839,0,0,0.06172839506172839,43.08641975308642,0)" xlink:href="#bE"/><use transform="matrix(0.06172839506172839,0,0,0.06172839506172839,54.19753086419753,0)" xlink:href="#ba"/><use transform="matrix(0.06172839506172839,0,0,0.06172839506172839,59.074074074074076,0)" xlink:href="#bf"/><use transform="matrix(0.06172839506172839,0,0,0.06172839506172839,71.41975308641976,0)" xlink:href="#bp"/><use transform="matrix(0.06172839506172839,0,0,0.06172839506172839,83.76543209876544,0)" xlink:href="#aY"/><use transform="matrix(0.06172839506172839,0,0,0.06172839506172839,96.11111111111113,0)" xlink:href="#bk"/><use transform="matrix(0.06172839506172839,0,0,0.06172839506172839,107.22222222222224,0)" xlink:href="#bA"/></g><g id="E"><use transform="matrix(0.06172839506172839,0,0,0.06172839506172839,0,0)" xlink:href="#br"/><use transform="matrix(0.06172839506172839,0,0,0.06172839506172839,18.456790123456788,0)" xlink:href="#aY"/><use transform="matrix(0.06172839506172839,0,0,0.06172839506172839,30.80246913580247,0)" xlink:href="#aZ"/><use transform="matrix(0.06172839506172839,0,0,0.06172839506172839,43.148148148148145,0)" xlink:href="#ba"/><use transform="matrix(0.06172839506172839,0,0,0.06172839506172839,48.02469135802469,0)" xlink:href="#bd"/></g><g id="F"><use transform="matrix(0.06172839506172839,0,0,0.06172839506172839,0,0)" xlink:href="#bu"/><use transform="matrix(0.06172839506172839,0,0,0.06172839506172839,18.456790123456788,0)" xlink:href="#bf"/><use transform="matrix(0.06172839506172839,0,0,0.06172839506172839,30.80246913580247,0)" xlink:href="#bk"/><use transform="matrix(0.06172839506172839,0,0,0.06172839506172839,41.91358024691358,0)" xlink:href="#bF"/><use transform="matrix(0.06172839506172839,0,0,0.06172839506172839,48.086419753086425,0)" xlink:href="#bb"/><use transform="matrix(0.06172839506172839,0,0,0.06172839506172839,55.4320987654321,0)" xlink:href="#bd"/><use transform="matrix(0.06172839506172839,0,0,0.06172839506172839,67.77777777777779,0)" xlink:href="#bb"/></g><path d="M9 0v-24l116-142H16v-24h144v24L44-24h123V0H9" id="bG"/><g id="G"><use transform="matrix(0.06172839506172839,0,0,0.06172839506172839,0,0)" xlink:href="#aY"/><use transform="matrix(0.06172839506172839,0,0,0.06172839506172839,12.345679012345679,0)" xlink:href="#bp"/><use transform="matrix(0.06172839506172839,0,0,0.06172839506172839,24.691358024691358,0)" xlink:href="#bE"/><use transform="matrix(0.06172839506172839,0,0,0.06172839506172839,35.80246913580247,0)" xlink:href="#bd"/><use transform="matrix(0.06172839506172839,0,0,0.06172839506172839,48.148148148148145,0)" xlink:href="#bz"/><use transform="matrix(0.06172839506172839,0,0,0.06172839506172839,60.49382716049382,0)" xlink:href="#aY"/><use transform="matrix(0.06172839506172839,0,0,0.06172839506172839,72.8395061728395,0)" xlink:href="#bG"/><use transform="matrix(0.06172839506172839,0,0,0.06172839506172839,83.95061728395062,0)" xlink:href="#bd"/><use transform="matrix(0.06172839506172839,0,0,0.06172839506172839,96.2962962962963,0)" xlink:href="#aZ"/><use transform="matrix(0.06172839506172839,0,0,0.06172839506172839,108.64197530864199,0)" xlink:href="#bf"/></g><path fill="#333" d="M169-182c-1-43-94-46-97-3 18 66 151 10 154 114 3 95-165 93-204 36-6-8-10-19-12-30l50-8c3 46 112 56 116 5-17-69-150-10-154-114-4-87 153-88 188-35 5 8 8 18 10 28" id="bH"/><path fill="#333" d="M25 0v-190h50V0H25zm-5-208v-5l45-51h45v8l-60 48H20" id="bI"/><g id="H"><use transform="matrix(0.04938271604938272,0,0,0.04938271604938272,0,0)" xlink:href="#bH"/><use transform="matrix(0.04938271604938272,0,0,0.04938271604938272,11.851851851851853,0)" xlink:href="#bI"/></g><path fill="#333" d="M175 0L67-191c6 58 2 128 3 191H24v-248h59L193-55c-6-58-2-129-3-193h46V0h-61" id="bJ"/><path fill="#333" d="M110-194c64 0 96 36 96 99 0 64-35 99-97 99-61 0-95-36-95-99 0-62 34-99 96-99zm-1 164c35 0 45-28 45-65 0-40-10-65-43-65-34 0-45 26-45 65 0 36 10 65 43 65" id="bK"/><g id="I"><use transform="matrix(0.04938271604938272,0,0,0.04938271604938272,0,0)" xlink:href="#bJ"/><use transform="matrix(0.04938271604938272,0,0,0.04938271604938272,12.790123456790125,0)" xlink:href="#bK"/></g><path d="M30 0v-248h33v221h125V0H30" id="bL"/><g id="J"><use transform="matrix(0.06172839506172839,0,0,0.06172839506172839,0,0)" xlink:href="#bL"/><use transform="matrix(0.06172839506172839,0,0,0.06172839506172839,12.345679012345679,0)" xlink:href="#ba"/><use transform="matrix(0.06172839506172839,0,0,0.06172839506172839,17.22222222222222,0)" xlink:href="#br"/><use transform="matrix(0.06172839506172839,0,0,0.06172839506172839,35.67901234567901,0)" xlink:href="#bD"/><use transform="matrix(0.06172839506172839,0,0,0.06172839506172839,48.02469135802469,0)" xlink:href="#ba"/><use transform="matrix(0.06172839506172839,0,0,0.06172839506172839,52.901234567901234,0)" xlink:href="#bd"/><use transform="matrix(0.06172839506172839,0,0,0.06172839506172839,65.24691358024691,0)" xlink:href="#bb"/></g><g id="K"><use transform="matrix(0.06172839506172839,0,0,0.06172839506172839,0,0)" xlink:href="#bD"/><use transform="matrix(0.06172839506172839,0,0,0.06172839506172839,12.345679012345679,0)" xlink:href="#bd"/><use transform="matrix(0.06172839506172839,0,0,0.06172839506172839,24.691358024691358,0)" xlink:href="#bp"/><use transform="matrix(0.06172839506172839,0,0,0.06172839506172839,37.03703703703704,0)" xlink:href="#bF"/><use transform="matrix(0.06172839506172839,0,0,0.06172839506172839,43.20987654320988,0)" xlink:href="#bd"/><use transform="matrix(0.06172839506172839,0,0,0.06172839506172839,55.55555555555556,0)" xlink:href="#be"/><use transform="matrix(0.06172839506172839,0,0,0.06172839506172839,60.4320987654321,0)" xlink:href="#be"/><use transform="matrix(0.06172839506172839,0,0,0.06172839506172839,65.30864197530865,0)" xlink:href="#bd"/></g><g id="L"><use transform="matrix(0.06172839506172839,0,0,0.06172839506172839,0,0)" xlink:href="#bc"/><use transform="matrix(0.06172839506172839,0,0,0.06172839506172839,11.11111111111111,0)" xlink:href="#bd"/><use transform="matrix(0.06172839506172839,0,0,0.06172839506172839,23.45679012345679,0)" xlink:href="#be"/><use transform="matrix(0.06172839506172839,0,0,0.06172839506172839,28.333333333333336,0)" xlink:href="#bf"/><use transform="matrix(0.06172839506172839,0,0,0.06172839506172839,40.67901234567901,0)" xlink:href="#bb"/></g><g id="M"><use transform="matrix(0.06172839506172839,0,0,0.06172839506172839,0,0)" xlink:href="#aZ"/><use transform="matrix(0.06172839506172839,0,0,0.06172839506172839,12.345679012345679,0)" xlink:href="#aY"/></g><use transform="matrix(0.06172839506172839,0,0,0.06172839506172839,0,0)" xlink:href="#bp" id="N"/><path d="M87 75C49 33 22-17 22-94c0-76 28-126 65-167h31c-38 41-64 92-64 168S80 34 118 75H87" id="bM"/><g id="O"><use transform="matrix(0.06172839506172839,0,0,0.06172839506172839,0,0)" xlink:href="#bM"/><use transform="matrix(0.06172839506172839,0,0,0.06172839506172839,7.345679012345679,0)" xlink:href="#bE"/><use transform="matrix(0.06172839506172839,0,0,0.06172839506172839,18.45679012345679,0)" xlink:href="#bd"/><use transform="matrix(0.06172839506172839,0,0,0.06172839506172839,30.80246913580247,0)" xlink:href="#bp"/><use transform="matrix(0.06172839506172839,0,0,0.06172839506172839,43.148148148148145,0)" xlink:href="#bF"/><use transform="matrix(0.06172839506172839,0,0,0.06172839506172839,49.32098765432099,0)" xlink:href="#ba"/><use transform="matrix(0.06172839506172839,0,0,0.06172839506172839,54.19753086419753,0)" xlink:href="#aZ"/><use transform="matrix(0.06172839506172839,0,0,0.06172839506172839,66.54320987654322,0)" xlink:href="#bd"/><use transform="matrix(0.06172839506172839,0,0,0.06172839506172839,78.8888888888889,0)" xlink:href="#aZ"/></g><g id="P"><use transform="matrix(0.06172839506172839,0,0,0.06172839506172839,0,0)" xlink:href="#bp"/><use transform="matrix(0.06172839506172839,0,0,0.06172839506172839,12.345679012345679,0)" xlink:href="#bq"/><use transform="matrix(0.06172839506172839,0,0,0.06172839506172839,24.691358024691358,0)" xlink:href="#br"/><use transform="matrix(0.06172839506172839,0,0,0.06172839506172839,43.148148148148145,0)" xlink:href="#aY"/><use transform="matrix(0.06172839506172839,0,0,0.06172839506172839,55.49382716049382,0)" xlink:href="#bb"/><use transform="matrix(0.06172839506172839,0,0,0.06172839506172839,62.8395061728395,0)" xlink:href="#bf"/><use transform="matrix(0.06172839506172839,0,0,0.06172839506172839,75.18518518518518,0)" xlink:href="#bk"/></g><use transform="matrix(0.06172839506172839,0,0,0.06172839506172839,0,0)" xlink:href="#bd" id="Q"/><g id="R"><use transform="matrix(0.06172839506172839,0,0,0.06172839506172839,0,0)" xlink:href="#bc"/><use transform="matrix(0.06172839506172839,0,0,0.06172839506172839,11.11111111111111,0)" xlink:href="#bd"/><use transform="matrix(0.06172839506172839,0,0,0.06172839506172839,23.45679012345679,0)" xlink:href="#be"/><use transform="matrix(0.06172839506172839,0,0,0.06172839506172839,28.333333333333336,0)" xlink:href="#ba"/><use transform="matrix(0.06172839506172839,0,0,0.06172839506172839,33.20987654320988,0)" xlink:href="#aZ"/><use transform="matrix(0.06172839506172839,0,0,0.06172839506172839,45.55555555555556,0)" xlink:href="#bd"/><use transform="matrix(0.06172839506172839,0,0,0.06172839506172839,57.901234567901234,0)" xlink:href="#bb"/></g><g id="S"><use transform="matrix(0.06172839506172839,0,0,0.06172839506172839,0,0)" xlink:href="#bk"/><use transform="matrix(0.06172839506172839,0,0,0.06172839506172839,11.11111111111111,0)" xlink:href="#ba"/></g><g id="T"><use transform="matrix(0.06172839506172839,0,0,0.06172839506172839,0,0)" xlink:href="#bD"/><use transform="matrix(0.06172839506172839,0,0,0.06172839506172839,12.345679012345679,0)" xlink:href="#aY"/><use transform="matrix(0.06172839506172839,0,0,0.06172839506172839,24.691358024691358,0)" xlink:href="#bb"/><use transform="matrix(0.06172839506172839,0,0,0.06172839506172839,32.03703703703704,0)" xlink:href="#bF"/><use transform="matrix(0.06172839506172839,0,0,0.06172839506172839,38.20987654320988,0)" xlink:href="#aY"/><use transform="matrix(0.06172839506172839,0,0,0.06172839506172839,50.55555555555556,0)" xlink:href="#bp"/><use transform="matrix(0.06172839506172839,0,0,0.06172839506172839,62.901234567901234,0)" xlink:href="#aY"/><use transform="matrix(0.06172839506172839,0,0,0.06172839506172839,75.24691358024691,0)" xlink:href="#bE"/><use transform="matrix(0.06172839506172839,0,0,0.06172839506172839,86.35802469135803,0)" xlink:href="#aY"/><use transform="matrix(0.06172839506172839,0,0,0.06172839506172839,98.70370370370371,0)" xlink:href="#bp"/></g><g id="U"><use transform="matrix(0.06172839506172839,0,0,0.06172839506172839,0,0)" xlink:href="#bd"/><use transform="matrix(0.06172839506172839,0,0,0.06172839506172839,12.345679012345679,0)" xlink:href="#be"/></g><path d="M33-261c38 41 65 92 65 168S71 34 33 75H2C39 34 66-17 66-93S39-220 2-261h31" id="bN"/><g id="V"><use transform="matrix(0.06172839506172839,0,0,0.06172839506172839,0,0)" xlink:href="#bb"/><use transform="matrix(0.06172839506172839,0,0,0.06172839506172839,7.345679012345679,0)" xlink:href="#bd"/><use transform="matrix(0.06172839506172839,0,0,0.06172839506172839,19.691358024691358,0)" xlink:href="#bp"/><use transform="matrix(0.06172839506172839,0,0,0.06172839506172839,32.03703703703704,0)" xlink:href="#bg"/><use transform="matrix(0.06172839506172839,0,0,0.06172839506172839,44.382716049382715,0)" xlink:href="#bf"/><use transform="matrix(0.06172839506172839,0,0,0.06172839506172839,56.72839506172839,0)" xlink:href="#bN"/></g><g id="W"><use transform="matrix(0.06172839506172839,0,0,0.06172839506172839,0,0)" xlink:href="#br"/><use transform="matrix(0.06172839506172839,0,0,0.06172839506172839,18.456790123456788,0)" xlink:href="#aY"/><use transform="matrix(0.06172839506172839,0,0,0.06172839506172839,30.80246913580247,0)" xlink:href="#aZ"/><use transform="matrix(0.06172839506172839,0,0,0.06172839506172839,43.148148148148145,0)" xlink:href="#ba"/><use transform="matrix(0.06172839506172839,0,0,0.06172839506172839,48.02469135802469,0)" xlink:href="#bd"/></g><use transform="matrix(0.06172839506172839,0,0,0.06172839506172839,0,0)" xlink:href="#bm" id="X"/><use transform="matrix(0.06172839506172839,0,0,0.06172839506172839,0,0)" xlink:href="#bn" id="Y"/><g id="Z"><use transform="matrix(0.06172839506172839,0,0,0.06172839506172839,0,0)" xlink:href="#bk"/><use transform="matrix(0.06172839506172839,0,0,0.06172839506172839,11.11111111111111,0)" xlink:href="#bC"/><use transform="matrix(0.06172839506172839,0,0,0.06172839506172839,23.45679012345679,0)" xlink:href="#br"/><use transform="matrix(0.06172839506172839,0,0,0.06172839506172839,41.91358024691358,0)" xlink:href="#br"/><use transform="matrix(0.06172839506172839,0,0,0.06172839506172839,60.37037037037037,0)" xlink:href="#aY"/><use transform="matrix(0.06172839506172839,0,0,0.06172839506172839,72.71604938271605,0)" xlink:href="#aZ"/><use transform="matrix(0.06172839506172839,0,0,0.06172839506172839,85.06172839506173,0)" xlink:href="#ba"/><use transform="matrix(0.06172839506172839,0,0,0.06172839506172839,89.93827160493828,0)" xlink:href="#bd"/></g><use transform="matrix(0.06172839506172839,0,0,0.06172839506172839,0,0)" xlink:href="#bn" id="aa"/><g id="ab"><use transform="matrix(0.06172839506172839,0,0,0.06172839506172839,0,0)" xlink:href="#ba"/><use transform="matrix(0.06172839506172839,0,0,0.06172839506172839,4.876543209876543,0)" xlink:href="#bF"/><use transform="matrix(0.06172839506172839,0,0,0.06172839506172839,11.049382716049383,0)" xlink:href="#aY"/><use transform="matrix(0.06172839506172839,0,0,0.06172839506172839,23.395061728395063,0)" xlink:href="#bb"/><use transform="matrix(0.06172839506172839,0,0,0.06172839506172839,30.74074074074074,0)" xlink:href="#bd"/><use transform="matrix(0.06172839506172839,0,0,0.06172839506172839,43.08641975308642,0)" xlink:href="#bE"/><use transform="matrix(0.06172839506172839,0,0,0.06172839506172839,54.19753086419753,0)" xlink:href="#ba"/><use transform="matrix(0.06172839506172839,0,0,0.06172839506172839,59.074074074074076,0)" xlink:href="#bf"/><use transform="matrix(0.06172839506172839,0,0,0.06172839506172839,71.41975308641976,0)" xlink:href="#bp"/><use transform="matrix(0.06172839506172839,0,0,0.06172839506172839,83.76543209876544,0)" xlink:href="#aY"/><use transform="matrix(0.06172839506172839,0,0,0.06172839506172839,96.11111111111113,0)" xlink:href="#bk"/></g><use transform="matrix(0.06172839506172839,0,0,0.06172839506172839,0,0)" xlink:href="#bn" id="ac"/><use transform="matrix(0.06172839506172839,0,0,0.06172839506172839,0,0)" xlink:href="#ba" id="ad"/><g id="ae"><use transform="matrix(0.06172839506172839,0,0,0.06172839506172839,0,0)" xlink:href="#bi"/><use transform="matrix(0.06172839506172839,0,0,0.06172839506172839,13.518518518518517,0)" xlink:href="#ba"/></g><path d="M18-100v-36l175-74v27L42-118l151 64v27" id="bO"/><use transform="matrix(0.06172839506172839,0,0,0.06172839506172839,0,0)" xlink:href="#bO" id="af"/><g id="ag"><use transform="matrix(0.06172839506172839,0,0,0.06172839506172839,0,0)" xlink:href="#bp"/><use transform="matrix(0.06172839506172839,0,0,0.06172839506172839,12.345679012345679,0)" xlink:href="#bo"/></g><g id="ah"><use transform="matrix(0.06172839506172839,0,0,0.06172839506172839,0,0)" xlink:href="#bp"/><use transform="matrix(0.06172839506172839,0,0,0.06172839506172839,12.345679012345679,0)" xlink:href="#bC"/><use transform="matrix(0.06172839506172839,0,0,0.06172839506172839,24.691358024691358,0)" xlink:href="#br"/></g><g id="ai"><use transform="matrix(0.06172839506172839,0,0,0.06172839506172839,0,0)" xlink:href="#bM"/><use transform="matrix(0.06172839506172839,0,0,0.06172839506172839,7.345679012345679,0)" xlink:href="#bp"/><use transform="matrix(0.06172839506172839,0,0,0.06172839506172839,19.691358024691358,0)" xlink:href="#bC"/><use transform="matrix(0.06172839506172839,0,0,0.06172839506172839,32.03703703703704,0)" xlink:href="#br"/><use transform="matrix(0.06172839506172839,0,0,0.06172839506172839,50.49382716049382,0)" xlink:href="#aY"/><use transform="matrix(0.06172839506172839,0,0,0.06172839506172839,62.8395061728395,0)" xlink:href="#bb"/><use transform="matrix(0.06172839506172839,0,0,0.06172839506172839,70.18518518518518,0)" xlink:href="#bf"/></g><use transform="matrix(0.06172839506172839,0,0,0.06172839506172839,0,0)" xlink:href="#bd" id="aj"/><g id="ak"><use transform="matrix(0.06172839506172839,0,0,0.06172839506172839,0,0)" xlink:href="#bc"/><use transform="matrix(0.06172839506172839,0,0,0.06172839506172839,11.11111111111111,0)" xlink:href="#bd"/><use transform="matrix(0.06172839506172839,0,0,0.06172839506172839,23.45679012345679,0)" xlink:href="#be"/><use transform="matrix(0.06172839506172839,0,0,0.06172839506172839,28.333333333333336,0)" xlink:href="#ba"/><use transform="matrix(0.06172839506172839,0,0,0.06172839506172839,33.20987654320988,0)" xlink:href="#aZ"/><use transform="matrix(0.06172839506172839,0,0,0.06172839506172839,45.55555555555556,0)" xlink:href="#bd"/><use transform="matrix(0.06172839506172839,0,0,0.06172839506172839,57.901234567901234,0)" xlink:href="#bb"/><use transform="matrix(0.06172839506172839,0,0,0.06172839506172839,65.24691358024691,0)" xlink:href="#bN"/></g><g id="al"><use transform="matrix(0.06172839506172839,0,0,0.06172839506172839,0,0)" xlink:href="#bi"/><use transform="matrix(0.06172839506172839,0,0,0.06172839506172839,13.518518518518517,0)" xlink:href="#bj"/><use transform="matrix(0.06172839506172839,0,0,0.06172839506172839,28.33333333333333,0)" xlink:href="#bk"/><use transform="matrix(0.06172839506172839,0,0,0.06172839506172839,39.44444444444444,0)" xlink:href="#bF"/><use transform="matrix(0.06172839506172839,0,0,0.06172839506172839,45.617283950617285,0)" xlink:href="#bs"/></g><g id="am"><use transform="matrix(0.06172839506172839,0,0,0.06172839506172839,0,0)" xlink:href="#bp"/><use transform="matrix(0.06172839506172839,0,0,0.06172839506172839,12.345679012345679,0)" xlink:href="#bC"/><use transform="matrix(0.06172839506172839,0,0,0.06172839506172839,24.691358024691358,0)" xlink:href="#br"/></g><g id="an"><use transform="matrix(0.06172839506172839,0,0,0.06172839506172839,0,0)" xlink:href="#aY"/><use transform="matrix(0.06172839506172839,0,0,0.06172839506172839,12.345679012345679,0)" xlink:href="#bp"/></g><g id="ao"><use transform="matrix(0.06172839506172839,0,0,0.06172839506172839,0,0)" xlink:href="#aY"/><use transform="matrix(0.06172839506172839,0,0,0.06172839506172839,12.345679012345679,0)" xlink:href="#be"/></g><g id="ap"><use transform="matrix(0.06172839506172839,0,0,0.06172839506172839,0,0)" xlink:href="#bj"/><use transform="matrix(0.06172839506172839,0,0,0.06172839506172839,14.814814814814813,0)" xlink:href="#be"/></g><g id="aq"><use transform="matrix(0.06172839506172839,0,0,0.06172839506172839,0,0)" xlink:href="#aY"/><use transform="matrix(0.06172839506172839,0,0,0.06172839506172839,12.345679012345679,0)" xlink:href="#bk"/><use transform="matrix(0.06172839506172839,0,0,0.06172839506172839,23.45679012345679,0)" xlink:href="#bF"/><use transform="matrix(0.06172839506172839,0,0,0.06172839506172839,29.62962962962963,0)" xlink:href="#bs"/></g><g id="ar"><use transform="matrix(0.06172839506172839,0,0,0.06172839506172839,0,0)" xlink:href="#by"/><use transform="matrix(0.06172839506172839,0,0,0.06172839506172839,6.172839506172839,0)" xlink:href="#bC"/><use transform="matrix(0.06172839506172839,0,0,0.06172839506172839,18.51851851851852,0)" xlink:href="#aY"/><use transform="matrix(0.06172839506172839,0,0,0.06172839506172839,30.864197530864196,0)" xlink:href="#bb"/><use transform="matrix(0.06172839506172839,0,0,0.06172839506172839,38.20987654320987,0)" xlink:href="#bd"/></g><g id="as"><use transform="matrix(0.06172839506172839,0,0,0.06172839506172839,0,0)" xlink:href="#aZ"/><use transform="matrix(0.06172839506172839,0,0,0.06172839506172839,12.345679012345679,0)" xlink:href="#aY"/><use transform="matrix(0.06172839506172839,0,0,0.06172839506172839,24.691358024691358,0)" xlink:href="#be"/></g><path d="M118-107v75H92v-75H18v-26h74v-75h26v75h74v26h-74" id="bP"/><use transform="matrix(0.06172839506172839,0,0,0.06172839506172839,0,0)" xlink:href="#bP" id="at"/><use transform="matrix(0.06172839506172839,0,0,0.06172839506172839,0,0)" xlink:href="#bh" id="au"/><g id="av"><use transform="matrix(0.04938271604938272,0,0,0.04938271604938272,0,0)" xlink:href="#bH"/><use transform="matrix(0.04938271604938272,0,0,0.04938271604938272,11.851851851851853,0)" xlink:href="#bI"/></g><g id="aw"><use transform="matrix(0.04938271604938272,0,0,0.04938271604938272,0,0)" xlink:href="#bJ"/><use transform="matrix(0.04938271604938272,0,0,0.04938271604938272,12.790123456790125,0)" xlink:href="#bK"/></g><g id="ax"><use transform="matrix(0.06172839506172839,0,0,0.06172839506172839,0,0)" xlink:href="#bD"/><use transform="matrix(0.06172839506172839,0,0,0.06172839506172839,12.345679012345679,0)" xlink:href="#bd"/><use transform="matrix(0.06172839506172839,0,0,0.06172839506172839,24.691358024691358,0)" xlink:href="#bb"/><use transform="matrix(0.06172839506172839,0,0,0.06172839506172839,32.03703703703704,0)" xlink:href="#bo"/></g><g id="ay"><use transform="matrix(0.06172839506172839,0,0,0.06172839506172839,0,0)" xlink:href="#bp"/><use transform="matrix(0.06172839506172839,0,0,0.06172839506172839,12.345679012345679,0)" xlink:href="#bD"/></g><g id="az"><use transform="matrix(0.06172839506172839,0,0,0.06172839506172839,0,0)" xlink:href="#bb"/><use transform="matrix(0.06172839506172839,0,0,0.06172839506172839,7.345679012345679,0)" xlink:href="#bg"/><use transform="matrix(0.06172839506172839,0,0,0.06172839506172839,19.691358024691358,0)" xlink:href="#bh"/></g><g id="aA"><use transform="matrix(0.06172839506172839,0,0,0.06172839506172839,0,0)" xlink:href="#bP"/><use transform="matrix(0.06172839506172839,0,0,0.06172839506172839,12.962962962962962,0)" xlink:href="#bh"/></g><g id="aB"><use transform="matrix(0.06172839506172839,0,0,0.06172839506172839,0,0)" xlink:href="#bP"/><use transform="matrix(0.06172839506172839,0,0,0.06172839506172839,12.962962962962962,0)" xlink:href="#bB"/></g><g id="aC"><use transform="matrix(0.06172839506172839,0,0,0.06172839506172839,0,0)" xlink:href="#bE"/><use transform="matrix(0.06172839506172839,0,0,0.06172839506172839,11.11111111111111,0)" xlink:href="#bd"/><use transform="matrix(0.06172839506172839,0,0,0.06172839506172839,23.45679012345679,0)" xlink:href="#bp"/><use transform="matrix(0.06172839506172839,0,0,0.06172839506172839,35.80246913580247,0)" xlink:href="#bF"/></g><g id="aD"><use transform="matrix(0.06172839506172839,0,0,0.06172839506172839,0,0)" xlink:href="#bi"/><use transform="matrix(0.06172839506172839,0,0,0.06172839506172839,13.518518518518517,0)" xlink:href="#bp"/><use transform="matrix(0.06172839506172839,0,0,0.06172839506172839,25.864197530864196,0)" xlink:href="#bD"/></g><g id="aE"><use transform="matrix(0.06172839506172839,0,0,0.06172839506172839,0,0)" xlink:href="#bp"/><use transform="matrix(0.06172839506172839,0,0,0.06172839506172839,12.345679012345679,0)" xlink:href="#bC"/><use transform="matrix(0.06172839506172839,0,0,0.06172839506172839,24.691358024691358,0)" xlink:href="#br"/><use transform="matrix(0.06172839506172839,0,0,0.06172839506172839,43.148148148148145,0)" xlink:href="#bo"/></g><g id="aF"><use transform="matrix(0.06172839506172839,0,0,0.06172839506172839,0,0)" xlink:href="#aY"/><use transform="matrix(0.06172839506172839,0,0,0.06172839506172839,12.345679012345679,0)" xlink:href="#bk"/></g><path d="M33 0v-248h34V0H33" id="bQ"/><g id="aG"><use transform="matrix(0.06172839506172839,0,0,0.06172839506172839,0,0)" xlink:href="#bQ"/><use transform="matrix(0.06172839506172839,0,0,0.06172839506172839,6.172839506172839,0)" xlink:href="#br"/><use transform="matrix(0.06172839506172839,0,0,0.06172839506172839,24.629629629629626,0)" xlink:href="#bD"/><use transform="matrix(0.06172839506172839,0,0,0.06172839506172839,36.9753086419753,0)" xlink:href="#bb"/><use transform="matrix(0.06172839506172839,0,0,0.06172839506172839,44.32098765432098,0)" xlink:href="#ba"/><use transform="matrix(0.06172839506172839,0,0,0.06172839506172839,49.197530864197525,0)" xlink:href="#br"/><use transform="matrix(0.06172839506172839,0,0,0.06172839506172839,67.65432098765432,0)" xlink:href="#ba"/><use transform="matrix(0.06172839506172839,0,0,0.06172839506172839,72.53086419753086,0)" xlink:href="#bb"/></g><g id="aH"><use transform="matrix(0.06172839506172839,0,0,0.06172839506172839,0,0)" xlink:href="#bp"/><use transform="matrix(0.06172839506172839,0,0,0.06172839506172839,12.345679012345679,0)" xlink:href="#bD"/></g><g id="aI"><use transform="matrix(0.06172839506172839,0,0,0.06172839506172839,0,0)" xlink:href="#bk"/><use transform="matrix(0.06172839506172839,0,0,0.06172839506172839,11.11111111111111,0)" xlink:href="#bC"/><use transform="matrix(0.06172839506172839,0,0,0.06172839506172839,23.45679012345679,0)" xlink:href="#br"/><use transform="matrix(0.06172839506172839,0,0,0.06172839506172839,41.91358024691358,0)" xlink:href="#br"/><use transform="matrix(0.06172839506172839,0,0,0.06172839506172839,60.37037037037037,0)" xlink:href="#aY"/><use transform="matrix(0.06172839506172839,0,0,0.06172839506172839,72.71604938271605,0)" xlink:href="#aZ"/><use transform="matrix(0.06172839506172839,0,0,0.06172839506172839,85.06172839506173,0)" xlink:href="#ba"/><use transform="matrix(0.06172839506172839,0,0,0.06172839506172839,89.93827160493828,0)" xlink:href="#bd"/></g><use transform="matrix(0.06172839506172839,0,0,0.06172839506172839,0,0)" xlink:href="#bh" id="aJ"/><use transform="matrix(0.06172839506172839,0,0,0.06172839506172839,0,0)" xlink:href="#bm" id="aK"/><path d="M0 4l72-265h28L28 4H0" id="bR"/><use transform="matrix(0.06172839506172839,0,0,0.06172839506172839,0,0)" xlink:href="#bR" id="aL"/><g id="aM"><use transform="matrix(0.06172839506172839,0,0,0.06172839506172839,0,0)" xlink:href="#ba"/><use transform="matrix(0.06172839506172839,0,0,0.06172839506172839,4.876543209876543,0)" xlink:href="#bF"/><use transform="matrix(0.06172839506172839,0,0,0.06172839506172839,11.049382716049383,0)" xlink:href="#aY"/><use transform="matrix(0.06172839506172839,0,0,0.06172839506172839,23.395061728395063,0)" xlink:href="#bb"/><use transform="matrix(0.06172839506172839,0,0,0.06172839506172839,30.74074074074074,0)" xlink:href="#bd"/><use transform="matrix(0.06172839506172839,0,0,0.06172839506172839,43.08641975308642,0)" xlink:href="#bE"/><use transform="matrix(0.06172839506172839,0,0,0.06172839506172839,54.19753086419753,0)" xlink:href="#ba"/><use transform="matrix(0.06172839506172839,0,0,0.06172839506172839,59.074074074074076,0)" xlink:href="#bf"/><use transform="matrix(0.06172839506172839,0,0,0.06172839506172839,71.41975308641976,0)" xlink:href="#bp"/><use transform="matrix(0.06172839506172839,0,0,0.06172839506172839,83.76543209876544,0)" xlink:href="#aY"/><use transform="matrix(0.06172839506172839,0,0,0.06172839506172839,96.11111111111113,0)" xlink:href="#bk"/></g><g id="aN"><use transform="matrix(0.06172839506172839,0,0,0.06172839506172839,0,0)" xlink:href="#br"/><use transform="matrix(0.06172839506172839,0,0,0.06172839506172839,18.456790123456788,0)" xlink:href="#aY"/><use transform="matrix(0.06172839506172839,0,0,0.06172839506172839,30.80246913580247,0)" xlink:href="#aZ"/><use transform="matrix(0.06172839506172839,0,0,0.06172839506172839,43.148148148148145,0)" xlink:href="#ba"/><use transform="matrix(0.06172839506172839,0,0,0.06172839506172839,48.02469135802469,0)" xlink:href="#bd"/></g><g id="aO"><use transform="matrix(0.06172839506172839,0,0,0.06172839506172839,0,0)" xlink:href="#be"/><use transform="matrix(0.06172839506172839,0,0,0.06172839506172839,4.876543209876543,0)" xlink:href="#bf"/><use transform="matrix(0.06172839506172839,0,0,0.06172839506172839,17.22222222222222,0)" xlink:href="#bk"/></g><g id="aP"><use transform="matrix(0.06172839506172839,0,0,0.06172839506172839,0,0)" xlink:href="#aZ"/><use transform="matrix(0.06172839506172839,0,0,0.06172839506172839,12.345679012345679,0)" xlink:href="#aY"/><use transform="matrix(0.06172839506172839,0,0,0.06172839506172839,24.691358024691358,0)" xlink:href="#bp"/><use transform="matrix(0.06172839506172839,0,0,0.06172839506172839,37.03703703703704,0)" xlink:href="#bF"/><use transform="matrix(0.06172839506172839,0,0,0.06172839506172839,43.20987654320988,0)" xlink:href="#bb"/><use transform="matrix(0.06172839506172839,0,0,0.06172839506172839,50.55555555555556,0)" xlink:href="#bf"/></g><path d="M63-220v92h138v28H63V0H30v-248h175v28H63" id="bS"/><path d="M190 0L58-211 59 0H30v-248h39L202-35l-2-213h31V0h-41" id="bT"/><g id="aQ"><use transform="matrix(0.06172839506172839,0,0,0.06172839506172839,0,0)" xlink:href="#bS"/><use transform="matrix(0.06172839506172839,0,0,0.06172839506172839,13.518518518518517,0)" xlink:href="#bQ"/><use transform="matrix(0.06172839506172839,0,0,0.06172839506172839,19.691358024691358,0)" xlink:href="#bT"/></g><use transform="matrix(0.06172839506172839,0,0,0.06172839506172839,0,0)" xlink:href="#bh" id="aR"/></defs></g></svg>